<svg width="37" height="37" viewBox="0 0 37 37" fill="none" xmlns="http://www.w3.org/2000/svg">
<path fill-rule="evenodd" clip-rule="evenodd" d="M33.9163 18.5C33.9163 27.0144 27.0141 33.9167 18.4997 33.9167C9.98528 33.9167 3.08301 27.0144 3.08301 18.5C3.08301 9.98565 9.98528 3.08337 18.4997 3.08337C27.0141 3.08337 33.9163 9.98565 33.9163 18.5ZM23.1247 13.875C23.1247 16.4294 21.054 18.5 18.4997 18.5C15.9454 18.5 13.8747 16.4294 13.8747 13.875C13.8747 11.3207 15.9454 9.25004 18.4997 9.25004C21.054 9.25004 23.1247 11.3207 23.1247 13.875ZM18.4997 31.6042C21.2501 31.6042 23.8026 30.7569 25.9103 29.309C26.8413 28.6695 27.2391 27.4513 26.6979 26.46C25.5758 24.405 23.2638 23.125 18.4996 23.125C13.7354 23.125 11.4234 24.405 10.3013 26.4599C9.76004 27.4512 10.1579 28.6694 11.0888 29.3089C13.1966 30.7568 15.7492 31.6042 18.4997 31.6042Z" fill="white"/>
</svg>
