<svg width="37" height="37" viewBox="0 0 37 37" fill="none" xmlns="http://www.w3.org/2000/svg">
<path d="M12.8757 31.2062C14.1724 32.8545 16.2094 33.9167 18.5 33.9167C20.7906 33.9167 22.8277 32.8545 24.1243 31.2062C20.3908 31.7121 16.6093 31.7121 12.8757 31.2062Z" fill="white"/>
<path d="M28.9049 13.875V14.9605C28.9049 16.2632 29.2767 17.5368 29.9734 18.6207L31.6807 21.2768C33.2401 23.7029 32.0496 27.0007 29.3374 27.7679C22.242 29.7749 14.758 29.7749 7.66264 27.7679C4.95036 27.0007 3.75985 23.7029 5.3193 21.2768L7.02661 18.6207C7.72331 17.5368 8.09509 16.2632 8.09509 14.9605V13.875C8.09509 7.91497 12.7535 3.08337 18.5 3.08337C24.2465 3.08337 28.9049 7.91497 28.9049 13.875Z" fill="white"/>
</svg>
