<svg width="21" height="20" viewBox="0 0 21 20" fill="none" xmlns="http://www.w3.org/2000/svg">
<path d="M10.0763 1.01904C8.14772 1.01903 6.63635 1.01902 5.45712 1.17757C4.2501 1.33985 3.29767 1.67849 2.55009 2.42606C1.85799 3.11817 1.51587 3.98652 1.34025 5.07153C1.16759 6.13822 1.14659 7.48003 1.14356 9.1636C1.14293 9.50966 1.42296 9.7907 1.76902 9.79132C2.11507 9.79194 2.39611 9.51191 2.39674 9.16586C2.39981 7.4616 2.42344 6.22248 2.57733 5.27177C2.72825 4.33937 2.99459 3.75383 3.43623 3.3122C3.91215 2.83627 4.55605 2.56317 5.6241 2.41958C6.71017 2.27356 8.13731 2.27223 10.1242 2.27223C12.1111 2.27223 13.5383 2.27356 14.6243 2.41958C15.6924 2.56317 16.3363 2.83627 16.8122 3.3122C17.2881 3.78812 17.5612 4.43202 17.7048 5.50007C17.8508 6.58614 17.8522 8.01328 17.8522 10.0002C17.8522 11.9871 17.8508 13.4142 17.7048 14.5003C17.5612 15.5683 17.2881 16.2122 16.8122 16.6882C16.3706 17.1298 15.785 17.3961 14.8526 17.5471C13.9019 17.701 12.6628 17.7246 10.9585 17.7277C10.6125 17.7283 10.3325 18.0093 10.3331 18.3554C10.3337 18.7014 10.6147 18.9815 10.9608 18.9808C12.6444 18.9778 13.9862 18.9568 15.0529 18.7841C16.1379 18.6085 17.0062 18.2664 17.6983 17.5743C18.4459 16.8267 18.7846 15.8743 18.9468 14.6673C19.1054 13.488 19.1054 11.9767 19.1054 10.0481V9.95225C19.1054 8.02369 19.1054 6.51232 18.9468 5.33309C18.7846 4.12607 18.4459 3.17364 17.6983 2.42606C16.9508 1.67849 15.9983 1.33985 14.7913 1.17757C13.6121 1.01902 12.1007 1.01903 10.1722 1.01904H10.0763Z" fill="#FAFAFA"/>
<path d="M4.2761 10.209C3.93005 10.209 3.64951 10.4896 3.64951 10.8356C3.64951 11.1817 3.93005 11.4622 4.2761 11.4622H7.77611L2.16213 17.0762C1.91743 17.3209 1.91743 17.7176 2.16213 17.9623C2.40683 18.207 2.80356 18.207 3.04826 17.9623L8.66224 12.3484V15.8484C8.66224 16.1944 8.94278 16.475 9.28883 16.475C9.63489 16.475 9.91543 16.1944 9.91543 15.8484V10.8356C9.91543 10.4896 9.63489 10.209 9.28883 10.209H4.2761Z" fill="#FAFAFA"/>
</svg>
