<svg width="25" height="25" viewBox="0 0 25 25" fill="none" xmlns="http://www.w3.org/2000/svg">
<path d="M19.6666 20.5V14.5M19.6666 14.5L21.6666 16.5M19.6666 14.5L17.6666 16.5" stroke="#FAFAFA" stroke-width="1.5" stroke-linecap="round" stroke-linejoin="round"/>
<path d="M22.6666 12.5C22.6666 8.72876 22.6666 6.84315 21.4951 5.67157C20.3235 4.5 18.4379 4.5 14.6666 4.5M14.6666 20.5H10.6666C6.89539 20.5 5.00977 20.5 3.8382 19.3284C2.66663 18.1569 2.66663 16.2712 2.66663 12.5C2.66663 8.72876 2.66663 6.84315 3.8382 5.67157C5.00977 4.5 6.89539 4.5 10.6666 4.5" stroke="#FAFAFA" stroke-width="1.5" stroke-linecap="round"/>
<path d="M10.6666 16.5H6.66663" stroke="#FAFAFA" stroke-width="1.5" stroke-linecap="round"/>
<path d="M13.6666 16.5H13.1666" stroke="#FAFAFA" stroke-width="1.5" stroke-linecap="round"/>
<path d="M2.66663 10.5L7.66663 10.5M22.6666 10.5L11.6666 10.5" stroke="#FAFAFA" stroke-width="1.5" stroke-linecap="round"/>
</svg>
