<svg width="24" height="25" viewBox="0 0 24 25" fill="none" xmlns="http://www.w3.org/2000/svg">
<path fill-rule="evenodd" clip-rule="evenodd" d="M12.0494 1.75H11.9506C11.2858 1.74997 10.7129 1.74994 10.2542 1.81161C9.76252 1.87771 9.29126 2.02677 8.90901 2.40901C8.52676 2.79126 8.3777 3.26252 8.31161 3.75416C8.24993 4.2129 8.24996 4.78577 8.25 5.45063L8.25 7.87804C8.01542 7.79512 7.76298 7.75001 7.5 7.75001H4.5C3.25736 7.75001 2.25 8.75737 2.25 10V21.75H2C1.58579 21.75 1.25 22.0858 1.25 22.5C1.25 22.9142 1.58579 23.25 2 23.25H22C22.4142 23.25 22.75 22.9142 22.75 22.5C22.75 22.0858 22.4142 21.75 22 21.75H21.75V15C21.75 13.7574 20.7426 12.75 19.5 12.75H16.5C16.237 12.75 15.9846 12.7951 15.75 12.878L15.75 5.45064C15.75 4.78577 15.7501 4.21291 15.6884 3.75416C15.6223 3.26252 15.4732 2.79126 15.091 2.40902C14.7087 2.02677 14.2375 1.87771 13.7458 1.81161C13.2871 1.74994 12.7142 1.74997 12.0494 1.75ZM20.25 21.75V15C20.25 14.5858 19.9142 14.25 19.5 14.25H16.5C16.0858 14.25 15.75 14.5858 15.75 15V21.75H20.25ZM14.25 21.75V5.50001C14.25 4.7717 14.2484 4.30091 14.2018 3.95403C14.158 3.62873 14.0874 3.52677 14.0303 3.46967C13.9732 3.41258 13.8713 3.34197 13.546 3.29823C13.1991 3.2516 12.7283 3.25001 12 3.25001C11.2717 3.25001 10.8009 3.2516 10.454 3.29823C10.1287 3.34197 10.0268 3.41258 9.96967 3.46968C9.91258 3.52677 9.84197 3.62873 9.79823 3.95403C9.75159 4.30091 9.75 4.7717 9.75 5.50001V21.75H14.25ZM8.25 21.75V10C8.25 9.58579 7.91421 9.25001 7.5 9.25001H4.5C4.08579 9.25001 3.75 9.58579 3.75 10V21.75H8.25Z" fill="#FAFAFA"/>
</svg>
