<svg width="25" height="25" viewBox="0 0 25 25" fill="none" xmlns="http://www.w3.org/2000/svg">
<path d="M19.3334 14.5V20.5M19.3334 20.5L21.3334 18.5M19.3334 20.5L17.3334 18.5" stroke="#FAFAFA" stroke-width="1.5" stroke-linecap="round" stroke-linejoin="round"/>
<path d="M22.3334 12.5C22.3334 8.72876 22.3334 6.84315 21.1618 5.67157C19.9902 4.5 18.1046 4.5 14.3334 4.5M14.3334 20.5H10.3334C6.56214 20.5 4.67652 20.5 3.50495 19.3284C2.33337 18.1569 2.33337 16.2712 2.33337 12.5C2.33337 8.72876 2.33337 6.84315 3.50495 5.67157C4.67652 4.5 6.56214 4.5 10.3334 4.5" stroke="#FAFAFA" stroke-width="1.5" stroke-linecap="round"/>
<path d="M10.3334 16.5H6.33337" stroke="#FAFAFA" stroke-width="1.5" stroke-linecap="round"/>
<path d="M13.3334 16.5H12.8334" stroke="#FAFAFA" stroke-width="1.5" stroke-linecap="round"/>
<path d="M2.33337 10.5L7.33337 10.5M22.3334 10.5L11.3334 10.5" stroke="#FAFAFA" stroke-width="1.5" stroke-linecap="round"/>
</svg>
