<svg width="1016" height="675" viewBox="0 0 1016 675" fill="none" xmlns="http://www.w3.org/2000/svg">
<path fill-rule="evenodd" clip-rule="evenodd" d="M7.96183 0.927856C8.5818 0.927856 9.84652 1.20064 10.8137 1.54782C11.7808 1.895 13.2687 2.51496 14.1615 2.93653C15.0542 3.3581 16.8397 4.32524 18.1292 5.0692C19.4188 5.83795 23.5601 8.36739 27.3047 10.6736C31.0493 13.0047 35.9594 15.9557 38.2161 17.2452C40.4727 18.5596 44.0933 20.469 46.2756 21.5106C48.4579 22.5769 51.3097 23.8416 52.5992 24.3624C53.8888 24.8832 56.567 25.8255 58.5509 26.4951C60.5348 27.1398 63.709 28.0822 65.6185 28.5533C67.528 29.0245 70.7766 29.7684 72.8101 30.1652C74.8683 30.562 79.1585 31.306 82.3575 31.8019C85.5565 32.2979 90.8634 33.141 94.1368 33.6866C97.4102 34.2322 101.874 35.0505 104.056 35.5217C106.239 35.9929 109.785 36.8856 111.942 37.5056C114.075 38.1255 117.323 39.1671 119.109 39.8366C120.919 40.5062 123.3 41.4485 124.391 41.9197C125.482 42.3661 127.888 43.5068 129.723 44.4243C131.558 45.3419 133.839 46.557 134.806 47.1274C135.774 47.6729 137.485 48.7393 138.65 49.4832C139.816 50.2272 142.048 51.7895 143.61 52.955C145.172 54.1205 147.131 55.6332 147.95 56.3028C148.768 56.9723 150.876 58.8322 152.637 60.4193C154.397 62.0064 157.249 64.8086 158.96 66.6437C160.671 68.4788 162.854 70.9339 163.821 72.0994C164.788 73.2649 166.449 75.3728 167.541 76.8111C168.632 78.2494 170.541 80.9772 171.831 82.8867C173.095 84.7962 175.848 89.1855 177.906 92.6573C179.989 96.1291 182.072 99.3777 182.544 99.8984C183.015 100.419 183.56 100.866 183.734 100.866C183.883 100.866 184.28 100.593 184.602 100.27C184.9 99.948 185.991 98.0634 187.007 96.1291C188.024 94.17 189.586 91.343 190.479 89.8303C191.372 88.3424 192.984 85.7633 194.075 84.1266C195.141 82.4899 197.175 79.6381 198.564 77.803C199.952 75.9679 201.837 73.5625 202.754 72.4714C203.647 71.3802 205.656 69.1484 207.169 67.5365C208.706 65.8998 211.285 63.3703 212.922 61.9072C214.559 60.4193 217.138 58.2619 218.626 57.0963C220.113 55.9308 223.089 53.7981 225.197 52.3846C227.305 50.9711 230.504 49.012 232.265 48.0201C234.025 47.0282 236.654 45.6642 238.092 44.9947C239.531 44.3251 242.035 43.2092 243.672 42.5396C245.309 41.8453 248.433 40.7046 250.616 39.9606C252.798 39.2415 256.989 38.0263 259.915 37.2824C262.841 36.5384 267.479 35.4721 270.207 34.9265C272.934 34.381 280.25 33.0914 286.45 32.0499C292.649 31.0332 299.345 29.8428 301.329 29.4461C303.313 29.0493 306.437 28.3301 308.272 27.859C310.107 27.3878 313.058 26.4951 314.844 25.8999C316.629 25.3047 319.357 24.288 320.92 23.6184C322.482 22.9489 326.226 21.1634 329.227 19.6507C332.228 18.1132 337.708 15.1126 341.378 12.9551C345.049 10.7976 349.314 8.39219 350.802 7.62344C352.29 6.87948 354.199 6.03634 355.018 5.76355C356.084 5.41637 357.175 5.26758 358.861 5.26758C360.944 5.26758 361.391 5.34198 362.705 5.96194C363.573 6.38351 364.714 7.22666 365.433 7.97061C366.127 8.68977 366.97 9.8057 367.342 10.5001C367.714 11.1696 368.235 12.6079 368.533 13.6991C368.806 14.815 369.153 17.2204 369.277 19.1547C369.426 21.3618 369.426 24.2632 369.277 27.0902C369.128 29.5453 368.905 32.7195 368.781 34.1578C368.632 35.5961 368.359 38.1007 368.136 39.7374C367.938 41.3741 367.541 44.1019 367.268 45.813C366.995 47.5241 366.425 50.5247 366.028 52.5086C365.607 54.4925 364.887 57.5427 364.441 59.3282C363.97 61.1137 363.102 64.1143 362.482 66.0238C361.862 67.9333 360.82 70.9587 360.151 72.7194C359.457 74.48 358.341 77.2823 357.621 78.919C356.902 80.5557 355.29 83.953 354.001 86.4825C352.736 89.0119 350.777 92.6325 349.661 94.542C348.545 96.4515 346.512 99.7497 345.098 101.858C343.709 103.965 341.602 106.991 340.411 108.553C339.221 110.115 337.311 112.57 336.121 114.009C334.931 115.447 331.732 118.844 329.004 121.572C326.251 124.325 322.68 127.673 321.044 129.012C319.407 130.376 316.679 132.533 314.968 133.823C313.257 135.087 310.132 137.294 308.024 138.683C305.916 140.072 302.494 142.205 300.461 143.395C298.402 144.61 294.683 146.644 292.153 147.958C289.624 149.247 285.557 151.281 283.102 152.471C280.647 153.637 276.629 155.521 274.174 156.637C271.719 157.778 267.429 159.836 264.627 161.225C261.825 162.639 258.427 164.424 257.063 165.193C255.699 165.986 252.848 167.772 250.74 169.185C248.632 170.599 245.606 172.781 244.019 174.071C242.432 175.335 239.804 177.542 238.216 178.981C236.605 180.419 234.001 182.924 232.438 184.56C230.876 186.197 228.595 188.776 227.355 190.264C226.14 191.752 224.404 194.058 223.486 195.348C222.593 196.637 221.081 199.043 220.113 200.679C219.146 202.316 217.758 205.044 216.989 206.755C216.22 208.466 215.179 210.921 214.707 212.211C214.211 213.5 213.443 215.856 212.971 217.418C212.5 218.981 211.806 221.56 211.459 223.122C211.112 224.684 210.591 227.536 210.293 229.446C209.822 232.347 209.748 233.984 209.723 239.489C209.723 245.193 209.797 246.482 210.268 249.284C210.591 251.045 211.112 253.624 211.484 254.988C211.831 256.352 212.575 258.633 213.095 260.072C213.616 261.51 214.807 264.114 215.699 265.899C216.592 267.685 218.055 270.289 218.948 271.727C219.841 273.165 220.932 274.827 221.353 275.447C221.775 276.067 223.188 278.125 224.503 280.034C225.817 281.944 227.007 283.952 227.181 284.498C227.379 285.168 227.528 288.218 227.603 293.673C227.677 298.187 227.603 306.271 227.454 311.652C227.28 317.034 227.057 323.184 226.908 325.292C226.784 327.399 226.561 329.929 226.412 330.871C226.264 331.814 225.941 333.078 225.668 333.649C225.272 334.517 225.073 334.715 224.503 334.715C224.131 334.715 223.387 334.417 222.841 334.021C222.296 333.649 221.081 332.384 220.163 331.218C219.221 330.078 217.187 327.226 215.65 324.92C214.112 322.613 211.037 317.753 208.83 314.132C206.623 310.512 203.895 306.221 202.804 304.585C201.713 302.948 200.076 300.667 199.183 299.501C198.316 298.336 194.199 294.045 190.082 289.954C184.924 284.82 182.048 281.745 180.783 280.034C179.766 278.67 178.378 276.612 177.708 275.447C177.038 274.281 175.972 272.099 175.327 270.611C174.707 269.123 173.641 266.271 172.996 264.287C172.351 262.303 170.541 255.955 168.979 250.152C167.417 244.349 165.408 237.158 164.54 234.157C163.647 231.157 162.159 226.42 161.217 223.618C160.299 220.816 158.886 216.848 158.117 214.814C157.348 212.756 156.108 209.706 155.389 207.995C154.67 206.284 153.505 203.73 152.835 202.291C152.165 200.853 150.826 198.224 149.834 196.464C148.842 194.703 146.983 191.677 145.718 189.768C144.453 187.859 142.444 185.106 141.279 183.618C140.113 182.155 137.881 179.675 136.369 178.088C134.831 176.501 132.674 174.443 131.583 173.525C130.492 172.607 128.359 170.921 126.871 169.805C125.358 168.689 122.68 166.879 120.919 165.763C119.159 164.672 115.464 162.614 112.736 161.225C110.008 159.811 105.495 157.679 102.692 156.464C99.8901 155.224 94.0376 152.794 89.6731 151.008C85.3085 149.223 79.6049 146.867 77.0258 145.751C74.4468 144.635 70.5286 142.825 68.3463 141.733C66.164 140.642 62.717 138.758 60.6588 137.542C58.6253 136.327 55.6247 134.343 54.0375 133.153C52.4504 131.963 50.2186 130.202 49.0778 129.235C47.9371 128.243 45.4572 125.862 43.5478 123.903C41.6383 121.944 38.7368 118.646 37.1001 116.613C35.4634 114.554 33.1572 111.554 31.9916 109.917C30.8013 108.28 28.9166 105.478 27.7511 103.717C26.6103 101.957 24.9984 99.3777 24.1553 98.0138C23.3369 96.6498 21.8242 94.0212 20.8075 92.1861C19.7659 90.351 18.0548 87.0528 16.9389 84.8706C15.8478 82.6883 14.2111 79.1669 13.2935 77.0591C12.376 74.9512 11.0369 71.653 10.3177 69.7435C9.59854 67.8341 8.4826 64.6599 7.86264 62.676C7.21788 60.6921 6.10194 56.7492 5.35799 53.8725C4.61403 50.9959 3.69648 46.9786 3.27491 44.9451C2.85333 42.8868 2.35736 40.159 2.13417 38.8695C1.93578 37.58 1.53901 34.7777 1.26622 32.6699C0.993439 30.562 0.64626 26.6438 0.497468 23.9904C0.274281 20.345 0.274281 18.2124 0.497468 15.311C0.64626 13.2031 1.01824 10.4505 1.29102 9.23534C1.5886 7.99541 2.13417 6.33392 2.48135 5.51557C2.85333 4.69722 3.59729 3.53169 4.14286 2.93653C4.66363 2.34137 5.50678 1.64701 5.97795 1.39903C6.44912 1.15104 7.34187 0.952655 7.96183 0.927856V0.927856ZM783.041 148.528C801.044 148.503 826.884 148.603 840.449 148.727C854.014 148.851 869.637 149.074 875.167 149.223C880.697 149.371 888.509 149.595 892.526 149.719C896.544 149.867 902.917 150.14 906.661 150.338C910.406 150.537 915.614 150.884 918.193 151.082C920.772 151.306 924.913 151.702 927.368 151.975C929.823 152.248 933.221 152.694 934.932 152.967C936.643 153.24 939.321 153.736 940.883 154.083C942.446 154.43 944.802 155.05 946.091 155.472C947.381 155.893 949.563 156.736 950.927 157.381C952.291 158.026 955.093 159.588 957.126 160.878C959.185 162.143 962.458 164.3 964.442 165.689C966.426 167.053 969.377 169.26 971.014 170.574C972.65 171.888 975.13 173.996 976.494 175.286C977.883 176.575 979.792 178.46 980.735 179.477C981.702 180.493 983.066 182.006 983.785 182.824C984.504 183.643 986.166 185.751 987.505 187.536C988.819 189.297 990.456 191.603 991.15 192.62C991.82 193.637 993.184 195.794 994.151 197.381C995.143 198.993 997.003 202.291 998.292 204.697C999.582 207.127 1001.39 210.847 1002.36 212.955C1003.3 215.062 1004.59 218.088 1005.24 219.65C1005.88 221.212 1006.72 223.395 1007.15 224.486C1007.57 225.577 1008.46 228.082 1009.13 230.065C1009.8 232.049 1010.91 235.447 1011.58 237.629C1012.28 239.811 1013.25 243.258 1013.79 245.317C1014.34 247.35 1014.98 250.152 1015.25 251.516C1015.53 252.88 1015.82 254.938 1015.92 256.104C1016.07 257.939 1016.02 258.261 1015.65 258.584C1015.28 258.881 1014.73 258.931 1012.45 258.782C1010.94 258.683 1008.14 258.385 1006.23 258.088C1004.32 257.815 1000.2 257.096 997.052 256.476C993.903 255.881 990.679 255.261 989.861 255.137C989.042 254.988 986.587 254.641 984.405 254.368C982.223 254.095 977.883 253.748 974.733 253.599C970.493 253.401 967.343 253.401 962.458 253.599C958.838 253.773 953.655 254.12 950.927 254.393C948.199 254.666 944.008 255.161 941.627 255.509C939.247 255.831 935.998 256.352 934.436 256.625C932.873 256.897 929.922 257.443 927.864 257.865C925.831 258.286 922.359 259.055 920.177 259.576C917.994 260.096 913.927 261.163 911.125 261.931C908.323 262.7 902.917 264.387 899.098 265.651C895.279 266.916 890.022 268.751 887.443 269.743C884.863 270.735 880.945 272.297 878.763 273.24C876.581 274.157 873.059 275.695 870.951 276.687C868.844 277.654 865.273 279.414 863.016 280.58C860.759 281.745 857.139 283.779 854.956 285.068C852.774 286.358 849.6 288.367 847.889 289.532C846.178 290.698 843.5 292.582 841.937 293.748C840.375 294.913 837.87 296.872 836.357 298.112C834.845 299.328 832.687 301.163 831.522 302.179C830.356 303.196 827.604 305.726 825.397 307.784C823.19 309.842 816.891 316.091 811.41 321.696C805.93 327.275 797.3 336.004 792.241 341.039C787.182 346.097 780.536 352.57 777.461 355.422C774.386 358.298 769.649 362.638 766.922 365.093C764.194 367.548 759.953 371.293 757.498 373.425C755.043 375.533 751.075 378.906 748.695 380.865C746.314 382.849 742.445 385.973 740.139 387.833C737.833 389.668 733.964 392.619 731.584 394.405C729.203 396.19 725.334 398.943 723.028 400.555C720.722 402.142 716.977 404.597 714.721 405.986C712.464 407.399 709.24 409.358 707.529 410.325C705.818 411.317 701.949 413.376 698.899 414.888C695.427 416.649 693.295 417.566 693.171 417.418C693.071 417.269 692.848 415.335 692.675 413.078C692.526 410.821 692.228 407.598 692.03 405.886C691.807 404.175 691.484 401.671 691.286 400.307C691.063 398.943 690.666 396.661 690.393 395.223C690.12 393.785 689.5 391.107 689.005 389.271C688.533 387.436 687.715 384.684 687.194 383.196C686.698 381.683 685.756 379.179 685.111 377.616C684.466 376.054 683.326 373.599 682.557 372.161C681.813 370.722 680.449 368.441 679.531 367.077C678.639 365.738 676.952 363.63 675.787 362.415C674.621 361.175 673.009 359.712 672.191 359.141C671.373 358.546 670.009 357.728 669.141 357.306C668.298 356.885 667.008 356.314 666.314 356.042C665.595 355.769 664.057 355.347 662.892 355.074C661.726 354.802 659.668 354.454 655.824 354.008L655.898 269.892C655.923 223.643 656.072 181.56 656.196 176.377C656.32 171.194 656.543 166.11 656.692 165.094C656.816 164.077 657.163 162.341 657.436 161.25C657.709 160.159 658.279 158.547 658.726 157.654C659.197 156.687 660.065 155.497 660.883 154.678C661.751 153.81 662.966 152.992 664.132 152.422C665.148 151.926 666.884 151.281 667.975 151.008C669.066 150.71 671.174 150.314 672.687 150.115C674.2 149.892 676.977 149.619 678.887 149.471C680.796 149.347 685.31 149.173 688.93 149.074C692.551 148.999 707.827 148.826 722.904 148.727C737.982 148.652 765.037 148.553 783.041 148.528ZM745.843 273.661C744.628 274.083 742.842 274.851 741.925 275.372C740.982 275.893 739.544 276.86 738.701 277.555C737.858 278.224 736.593 279.514 735.874 280.406C735.13 281.299 734.063 282.961 733.468 284.126C732.873 285.292 732.104 287.077 731.807 288.094C731.286 289.731 731.212 290.45 731.212 294.045C731.212 297.666 731.286 298.36 731.807 299.997C732.129 301.014 732.799 302.7 733.32 303.717C733.84 304.734 734.907 306.42 735.725 307.437C736.519 308.453 737.907 309.867 738.8 310.586C739.668 311.28 741.329 312.347 742.495 312.967C743.661 313.587 745.446 314.355 746.463 314.678C748.099 315.174 748.819 315.248 752.414 315.248C756.01 315.248 756.729 315.174 758.366 314.653C759.383 314.355 761.168 313.587 762.334 312.991C763.499 312.372 765.136 311.33 766.004 310.66C766.847 309.966 768.161 308.677 768.93 307.734C769.674 306.817 770.865 304.957 771.534 303.593C772.204 302.229 772.997 300.171 773.27 299.005C773.716 297.22 773.791 296.352 773.692 293.302C773.592 290.078 773.493 289.483 772.824 287.474C772.402 286.234 771.609 284.473 771.088 283.531C770.567 282.613 769.575 281.15 768.905 280.307C768.211 279.489 766.971 278.224 766.128 277.555C765.285 276.86 763.847 275.893 762.904 275.372C761.987 274.851 760.499 274.157 759.606 273.86C758.713 273.537 757.374 273.165 756.63 273.016C755.886 272.868 754.547 272.719 753.654 272.644C752.762 272.595 751.15 272.62 750.059 272.719C748.967 272.843 747.058 273.264 745.843 273.661ZM645.657 378.459C648.806 378.509 650.666 378.658 651.98 378.955C652.997 379.203 654.857 379.873 656.072 380.468C657.684 381.237 658.75 381.956 659.866 383.047C660.709 383.89 661.924 385.378 662.569 386.345C663.214 387.337 664.256 389.271 664.9 390.635C665.52 391.999 666.413 394.182 666.835 395.471C667.281 396.761 667.951 399.116 668.347 400.679C668.744 402.241 669.364 405.142 669.686 407.126C670.034 409.11 670.505 412.731 670.728 415.186C671.05 418.509 671.15 422.105 671.15 429.197C671.15 435.471 671.001 440.778 670.728 444.696C670.505 447.969 670.083 452.532 669.835 454.863C669.562 457.17 669.166 460.294 668.967 461.807C668.744 463.295 668.347 465.874 668.075 467.511C667.802 469.147 667.132 472.545 666.611 475.074C666.066 477.604 665.074 481.77 664.38 484.374C663.685 486.953 662.495 491.094 661.751 493.549C660.982 496.004 659.544 500.344 658.552 503.22C657.56 506.072 655.948 510.437 655.006 512.892C654.063 515.347 652.65 518.868 651.906 520.703C651.162 522.538 649.624 526.184 648.508 528.763C647.393 531.342 645.409 535.756 644.119 538.558C642.83 541.36 640.3 546.543 638.49 550.089C636.655 553.636 634.423 557.876 633.505 559.513C632.588 561.149 630.579 564.621 629.042 567.2C627.504 569.779 624.751 574.144 622.941 576.872C621.156 579.6 618.502 583.443 617.064 585.427C615.626 587.411 612.972 590.858 611.187 593.115C609.401 595.371 607.12 598.149 606.103 599.314C605.111 600.48 602.706 603.158 600.771 605.266C598.837 607.374 595.464 610.846 593.282 612.953C591.125 615.061 587.901 618.087 586.115 619.674C584.355 621.261 581.131 624.038 578.924 625.873C576.741 627.709 572.823 630.833 570.244 632.817C567.665 634.801 563.722 637.752 561.466 639.364C559.209 640.976 554.82 644.001 551.67 646.059C548.521 648.142 544.007 651.019 541.627 652.433C539.246 653.871 535.725 655.904 533.815 656.971C531.906 658.037 528.285 659.922 525.756 661.162C523.226 662.426 519.953 663.964 518.44 664.633C516.927 665.303 514.026 666.493 511.992 667.312C509.934 668.13 506.537 669.395 504.429 670.114C502.321 670.833 499.147 671.825 497.361 672.321C495.576 672.817 492.798 673.511 491.162 673.883C489.327 674.28 487.219 674.578 485.632 674.627C483.251 674.702 483.053 674.652 482.036 674.032C481.465 673.685 480.845 673.214 480.672 672.991C480.498 672.767 480.027 671.899 479.606 671.031C479.209 670.188 478.713 668.527 478.514 667.312C478.291 666.096 478.142 663.691 478.142 661.806C478.142 659.971 478.316 657.12 478.49 655.483C478.688 653.846 479.035 651.441 479.258 650.151C479.482 648.862 479.928 646.407 480.275 644.695C480.622 642.984 481.565 638.694 482.383 635.148C483.201 631.602 485.656 621.608 487.814 612.953C489.996 604.299 492.848 593.189 494.137 588.279C495.427 583.369 497.113 577.12 497.882 574.392C498.651 571.664 500.089 566.58 501.081 563.109C502.098 559.637 503.759 553.983 504.801 550.585C505.842 547.163 507.405 542.154 508.297 539.426C509.19 536.698 510.777 532.061 511.794 529.135C512.811 526.208 514.125 522.514 514.72 520.951C515.315 519.389 516.729 515.694 517.894 512.768C519.06 509.842 521.118 504.857 522.482 501.732C523.846 498.583 525.731 494.342 526.698 492.309C527.64 490.251 529.5 486.407 530.839 483.754C532.178 481.1 534.435 476.736 535.873 474.082C537.312 471.429 539.792 467.015 541.379 464.287C542.966 461.559 545.619 457.269 547.231 454.739C548.868 452.21 551.298 448.589 552.662 446.68C554.001 444.77 556.233 441.745 557.597 439.984C558.961 438.199 561.664 434.851 563.573 432.545C565.508 430.214 569.054 426.196 571.435 423.617C573.815 421.013 577.833 416.897 580.337 414.442C582.867 411.987 586.636 408.465 588.744 406.606C590.852 404.746 594.026 402.068 595.812 400.654C597.597 399.24 600.374 397.108 602.011 395.942C603.648 394.752 606.376 392.892 608.087 391.826C609.798 390.735 612.526 389.073 614.162 388.156C615.799 387.213 618.477 385.825 620.114 385.031C621.751 384.262 623.983 383.245 625.074 382.824C626.165 382.378 628.174 381.634 629.538 381.162C630.901 380.691 633.084 380.046 634.373 379.699C635.663 379.377 637.746 378.931 638.961 378.732C640.474 378.509 642.606 378.41 645.657 378.459ZM614.534 54.6413C615.427 54.7157 616.816 54.9885 617.634 55.2365C618.453 55.5092 619.792 56.1292 620.61 56.6004C621.428 57.0963 622.52 57.9147 623.04 58.4106C623.561 58.9066 624.38 59.8738 624.851 60.5681C625.322 61.2377 626.016 62.5768 627.058 65.2798L627.182 358.149L622.668 359.836C620.164 360.778 616.394 362.316 614.286 363.283C612.179 364.225 609.153 365.688 604.739 367.97L603.549 366.655C602.904 365.936 602.061 364.721 601.664 363.977C601.267 363.233 600.771 361.944 600.548 361.125C600.201 359.786 600.151 345.254 600.151 212.831C600.151 78.1254 600.176 65.8998 600.548 64.6599C600.771 63.9159 601.292 62.6264 601.714 61.808C602.11 60.9897 603.028 59.725 603.722 58.981C604.417 58.2371 605.657 57.1955 606.475 56.6748C607.293 56.154 608.533 55.534 609.203 55.3108C609.872 55.0877 610.988 54.8397 611.683 54.7157C612.352 54.6165 613.642 54.5917 614.534 54.6413ZM557.919 120.233C558.911 120.208 560.474 120.382 561.416 120.58C562.333 120.804 563.772 121.324 564.64 121.771C565.508 122.217 566.748 123.011 567.392 123.556C568.037 124.102 568.955 125.019 569.426 125.59C569.897 126.185 570.616 127.301 571.063 128.069C571.509 128.863 572.055 130.277 572.303 131.244C572.551 132.236 572.724 133.848 572.724 134.963C572.699 136.055 572.501 137.666 572.253 138.559C572.03 139.452 571.583 140.667 571.261 141.287C570.963 141.907 570.195 143.073 569.575 143.891C568.955 144.709 567.814 145.875 567.02 146.47C566.202 147.065 564.937 147.834 564.193 148.156C563.449 148.503 562.11 148.925 561.218 149.148C560.151 149.396 558.837 149.471 557.374 149.421C555.787 149.347 554.596 149.123 553.282 148.652C552.265 148.28 550.802 147.561 550.058 147.065C549.314 146.569 548.099 145.528 547.38 144.784C546.661 144.015 545.694 142.676 545.247 141.783C544.776 140.89 544.206 139.502 543.958 138.683C543.685 137.716 543.536 136.377 543.536 134.839C543.536 133.153 543.685 131.988 544.057 130.748C544.355 129.781 544.999 128.342 545.495 127.524C545.991 126.706 546.735 125.639 547.157 125.168C547.578 124.697 548.422 123.879 549.042 123.358C549.661 122.837 550.877 122.093 551.745 121.696C552.588 121.275 553.927 120.804 554.72 120.605C555.489 120.407 556.952 120.233 557.944 120.233H557.919ZM502.296 123.953C502.842 123.928 503.983 124.052 504.85 124.176C505.694 124.325 507.132 124.771 508.074 125.193C508.992 125.614 510.232 126.358 510.852 126.854C511.472 127.35 512.29 128.144 512.712 128.615C513.108 129.086 513.728 129.855 514.076 130.351C514.398 130.847 514.993 132.136 516.059 135.211V454.491L514.1 457.765C513.034 459.575 510.901 463.295 509.389 466.023C507.851 468.75 504.9 474.38 498.998 486.109L497.907 485.737C497.336 485.539 496.345 485.093 495.725 484.77C495.105 484.448 493.865 483.431 492.972 482.538C491.806 481.373 491.087 480.356 490.467 479.042C489.971 478.025 489.451 476.587 489.302 475.868C489.103 474.95 489.029 427.188 489.029 305.329C489.029 183.469 489.103 135.707 489.302 134.765C489.451 134.071 489.971 132.632 490.443 131.616C491.112 130.252 491.806 129.285 493.096 127.995C494.261 126.854 495.402 125.962 496.469 125.466C497.361 125.019 498.8 124.499 499.692 124.325C500.585 124.127 501.751 123.953 502.296 123.953ZM557.969 170.822C559.135 170.822 560.697 170.971 561.441 171.169C562.185 171.368 563.524 171.888 564.417 172.335C565.433 172.831 566.624 173.723 567.64 174.74C568.756 175.881 569.55 176.947 570.17 178.237C570.666 179.253 571.187 180.692 571.335 181.386C571.534 182.328 571.608 212.533 571.608 390.635L568.831 392.991C567.293 394.281 564.144 397.083 561.838 399.191C559.506 401.299 555.291 405.316 552.464 408.118C547.95 412.582 547.281 413.152 546.983 412.83C546.785 412.632 546.338 411.888 545.991 411.218C545.644 410.524 545.198 409.309 544.974 408.49C544.627 407.151 544.578 396.339 544.578 294.839C544.578 214.79 544.652 182.328 544.851 181.386C544.999 180.692 545.52 179.253 546.016 178.237C546.636 176.972 547.43 175.856 548.546 174.74C549.686 173.599 550.703 172.855 552.017 172.211C553.034 171.715 554.324 171.219 554.869 171.07C555.415 170.946 556.803 170.847 557.969 170.822ZM390.455 199.415C392.513 199.464 393.53 199.613 394.671 200.035C395.489 200.332 396.654 200.903 397.274 201.299C397.894 201.696 398.886 202.49 399.481 203.085C400.077 203.68 401.019 204.821 401.54 205.639C402.06 206.457 402.755 207.896 403.598 210.599V465.031L403.052 466.767C402.755 467.709 402.06 469.172 401.54 469.99C400.994 470.809 400.126 471.925 399.605 472.445C399.085 472.966 398.018 473.809 397.274 474.305C396.53 474.801 395.241 475.421 394.423 475.694C393.282 476.066 392.265 476.19 390.083 476.19C387.9 476.19 386.884 476.066 385.743 475.694C384.925 475.421 383.635 474.801 382.891 474.305C382.147 473.809 381.081 472.966 380.56 472.445C380.039 471.925 379.196 470.858 378.7 470.114C378.204 469.37 377.51 467.907 376.568 465.031V210.599L377.188 208.739C377.51 207.722 378.204 206.259 378.7 205.515C379.171 204.771 380.238 203.531 381.056 202.787C381.85 202.018 383.139 201.101 383.883 200.729C384.627 200.357 385.817 199.886 386.487 199.687C387.33 199.439 388.62 199.365 390.455 199.415ZM448.31 208.516C449.426 208.516 450.938 208.615 451.658 208.764C452.352 208.912 453.84 209.458 454.931 209.979C456.022 210.524 457.46 211.417 458.13 212.012C458.8 212.607 459.891 213.847 460.56 214.814C461.279 215.831 462.023 217.369 462.42 218.534C462.991 220.196 463.09 220.94 463.065 223.122C463.065 224.982 462.916 226.147 462.569 227.214C462.321 228.032 461.701 229.421 461.205 230.313C460.709 231.231 459.568 232.645 458.601 233.587C457.46 234.703 456.32 235.496 455.055 236.116C454.038 236.612 452.402 237.183 451.459 237.381C450.517 237.579 449.178 237.753 448.483 237.753C447.814 237.753 446.45 237.579 445.508 237.381C444.565 237.183 442.928 236.612 441.912 236.116C440.548 235.447 439.556 234.703 438.192 233.314C436.952 232.074 436.059 230.884 435.539 229.817C435.092 228.925 434.571 227.536 434.373 226.718C434.15 225.899 433.976 224.238 433.976 222.998C433.976 221.758 434.125 220.196 434.299 219.526C434.497 218.832 434.943 217.617 435.315 216.798C435.687 215.98 436.58 214.591 437.274 213.723C438.018 212.806 439.283 211.665 440.3 210.995C441.242 210.351 442.755 209.582 443.648 209.309C444.54 209.012 445.483 208.714 445.756 208.664C446.028 208.59 447.169 208.54 448.31 208.516ZM329.202 222.973C331.112 223.023 332.129 223.196 333.542 223.717C334.559 224.064 336.022 224.783 336.766 225.279C337.51 225.775 338.7 226.767 339.37 227.462C340.064 228.181 341.006 229.52 341.527 230.462C342.023 231.405 342.618 232.843 342.866 233.661C343.164 234.628 343.313 235.968 343.313 237.505C343.313 239.043 343.164 240.382 342.866 241.349C342.618 242.167 342.048 243.556 341.577 244.449C341.106 245.341 340.262 246.606 339.667 247.276C339.097 247.945 337.832 249.011 336.89 249.631C335.948 250.276 334.435 251.045 333.542 251.367C332.476 251.739 331.112 251.987 329.574 252.062C327.863 252.161 326.747 252.062 325.483 251.764C324.54 251.541 323.077 251.045 322.259 250.648C321.44 250.251 320.2 249.458 319.506 248.863C318.836 248.268 317.845 247.3 317.324 246.68C316.828 246.06 316.034 244.771 315.588 243.829C315.117 242.861 314.596 241.473 314.422 240.729C314.249 239.985 314.125 238.522 314.125 237.505C314.125 236.488 314.249 235.025 314.422 234.281C314.596 233.537 315.142 232.074 315.613 231.057C316.307 229.619 316.952 228.751 318.514 227.214C319.928 225.825 321.019 224.982 322.209 224.411C323.127 223.99 324.515 223.444 325.309 223.246C326.226 223.023 327.566 222.924 329.202 222.973ZM270.182 238.274C270.876 238.274 272.215 238.423 273.158 238.646C274.1 238.844 275.687 239.414 276.629 239.935C277.621 240.456 279.01 241.498 279.853 242.341C280.672 243.159 281.688 244.498 282.135 245.317C282.556 246.135 283.102 247.424 283.375 248.168C283.796 249.483 283.821 252.285 283.895 321.448C283.945 381.088 283.895 393.71 283.623 395.347C283.424 396.513 282.928 398.05 282.432 399.067C281.862 400.232 281.019 401.373 279.853 402.563C278.564 403.878 277.646 404.547 276.257 405.217C275.241 405.688 273.802 406.209 273.108 406.358C272.389 406.506 271.124 406.63 270.306 406.63C269.487 406.63 268.223 406.506 267.528 406.358C266.809 406.209 265.371 405.688 264.354 405.217C262.965 404.547 262.048 403.878 260.758 402.563C259.667 401.448 258.725 400.208 258.229 399.191C257.782 398.298 257.262 396.785 257.039 395.843C256.716 394.306 256.667 385.428 256.667 322.613C256.667 259.377 256.716 250.921 257.039 249.21C257.286 248.069 257.782 246.606 258.353 245.589C258.849 244.647 259.717 243.357 260.262 242.762C260.808 242.142 261.874 241.25 262.618 240.754C263.362 240.258 264.428 239.638 264.974 239.39C265.52 239.142 266.636 238.795 267.454 238.621C268.272 238.423 269.512 238.274 270.182 238.274ZM449.351 256.997C450.368 257.071 451.881 257.344 452.699 257.592C453.517 257.865 454.857 258.484 455.675 259.03C456.493 259.551 457.783 260.642 458.527 261.46C459.271 262.279 460.188 263.543 460.535 264.287C460.907 265.031 461.379 266.271 461.602 267.015C461.974 268.255 461.999 277.083 461.999 374.64C461.999 470.263 461.949 481.051 461.602 482.39C461.379 483.208 460.858 484.547 460.436 485.365C459.99 486.184 458.924 487.597 458.031 488.49C456.865 489.656 455.898 490.375 454.559 490.995C453.542 491.491 452.079 492.011 451.335 492.185C450.492 492.383 449.128 492.458 447.739 492.359C446.425 492.284 444.888 492.011 444.02 491.714C443.201 491.416 441.912 490.772 441.168 490.276C440.424 489.78 439.258 488.788 438.614 488.118C437.944 487.399 436.977 485.985 436.431 484.869C435.886 483.778 435.34 482.266 435.216 481.522C435.043 480.629 434.993 443.53 435.092 267.635L435.712 266.023C436.059 265.13 436.729 263.816 437.2 263.072C437.671 262.328 438.638 261.212 439.308 260.592C440.002 259.972 441.069 259.154 441.664 258.807C442.284 258.46 443.276 257.989 443.896 257.741C444.516 257.517 445.582 257.22 446.251 257.096C446.946 256.972 448.335 256.947 449.351 256.997ZM329.574 267.933C330.318 267.982 331.434 268.156 332.054 268.305C332.674 268.453 333.964 268.974 334.906 269.445C336.047 270.016 337.212 270.884 338.279 271.95C339.32 272.992 340.213 274.207 340.783 275.323C341.254 276.265 341.775 277.678 341.949 278.422C342.147 279.439 342.222 299.452 342.098 439.24L341.403 440.976C341.031 441.919 340.213 443.382 339.593 444.2C338.998 445.018 337.956 446.11 337.311 446.655C336.667 447.176 335.526 447.92 334.782 448.292C334.038 448.664 332.872 449.11 332.178 449.309C331.484 449.507 329.872 449.656 328.582 449.656C326.822 449.631 325.805 449.507 324.615 449.085C323.722 448.788 322.333 448.118 321.515 447.597C320.696 447.077 319.432 445.986 318.688 445.167C317.969 444.374 317.026 443.059 316.654 442.266C316.257 441.497 315.762 440.158 315.563 439.29C315.241 437.951 315.191 427.783 315.191 359.017C315.191 303.618 315.266 279.836 315.464 278.794C315.613 277.976 316.109 276.513 316.555 275.571C317.026 274.603 317.894 273.264 318.489 272.595C319.084 271.9 320.275 270.884 321.168 270.289C322.036 269.693 323.375 268.999 324.119 268.726C324.863 268.453 326.103 268.131 326.846 268.007C327.59 267.883 328.83 267.858 329.574 267.933ZM963.5 280.208C968.311 280.183 974.932 280.307 979.098 280.53C983.091 280.754 989.885 281.2 994.176 281.547C998.466 281.869 1004.22 282.341 1006.95 282.539C1009.67 282.737 1012.33 283.035 1012.82 283.159C1013.34 283.283 1014.04 283.655 1014.39 284.002C1014.73 284.349 1015.18 285.267 1015.4 286.036C1015.73 287.176 1015.8 288.119 1015.68 290.574C1015.6 292.285 1015.3 294.839 1015.03 296.277C1014.76 297.716 1014.36 299.65 1014.14 300.617C1013.92 301.559 1013.25 304.138 1012.63 306.321C1012.01 308.503 1010.84 312.347 1010 314.876C1009.18 317.406 1007.79 321.349 1006.95 323.68C1006.08 325.986 1004.89 329.185 1004.27 330.747C1003.65 332.309 1002.36 335.434 1001.42 337.691C1000.45 339.947 998.714 343.841 997.523 346.37C996.358 348.9 994.548 352.57 993.506 354.554C992.464 356.538 990.778 359.662 989.761 361.497C988.72 363.332 987.058 366.234 986.042 367.945C985 369.656 983.512 372.111 982.694 373.4C981.875 374.69 979.991 377.591 978.478 379.848C976.99 382.105 974.684 385.453 973.394 387.288C972.08 389.123 969.104 393.19 966.773 396.339C964.442 399.464 960.474 404.597 957.97 407.746C955.465 410.871 952.018 415.111 950.307 417.17C948.596 419.203 945.471 422.898 943.363 425.353C941.231 427.808 938.156 431.255 936.544 433.041C934.932 434.801 931.286 438.596 928.484 441.423C925.682 444.274 921.64 448.193 919.532 450.127C917.424 452.061 914.423 454.739 912.886 456.054C911.373 457.368 908.249 459.947 905.942 461.757C903.661 463.592 900.511 466.023 898.949 467.188C897.387 468.329 895.031 470.04 893.741 470.982C892.452 471.9 888.707 474.479 885.434 476.686C882.16 478.918 877.697 481.869 875.514 483.258C873.332 484.671 869.364 487.176 866.711 488.837C864.058 490.499 860.09 492.954 857.907 494.293C855.725 495.632 849.377 499.476 843.772 502.848C838.168 506.196 831.1 510.412 828.025 512.197C824.95 513.983 820.115 516.711 817.238 518.273C814.361 519.835 810.195 522.067 807.938 523.233C805.682 524.423 801.441 526.506 798.515 527.895C795.589 529.284 790.902 531.441 788.1 532.656C785.297 533.896 780.437 535.93 777.312 537.194C774.163 538.459 769.203 540.393 766.277 541.484C763.351 542.576 758.49 544.336 755.489 545.378C752.489 546.444 747.182 548.254 743.71 549.395C740.238 550.536 734.485 552.346 730.939 553.437C727.393 554.504 722.755 555.892 720.648 556.512C718.54 557.107 715.117 558.074 713.084 558.62C711.026 559.166 708.298 559.885 707.008 560.232C705.719 560.554 702.421 561.373 699.693 561.993C696.965 562.637 692.898 563.53 690.641 563.977C688.385 564.448 684.59 565.142 682.21 565.564C679.829 565.96 676.084 566.531 673.902 566.804C671.72 567.076 668.422 567.424 666.587 567.597C664.752 567.746 662.569 567.82 661.751 567.771C660.561 567.672 660.164 567.523 659.792 567.052C659.445 566.58 659.37 566.208 659.494 565.34C659.569 564.72 659.866 563.332 660.164 562.241C660.437 561.149 661.354 558.248 662.172 555.793C662.991 553.338 664.702 548.527 665.967 545.13C667.231 541.708 669.686 535.359 671.422 530.995C673.158 526.63 675.192 521.497 675.936 519.587C676.68 517.678 677.994 514.28 678.862 512.024C679.705 509.767 681.094 505.874 681.912 503.344C682.731 500.815 683.747 497.467 684.169 495.905C684.59 494.342 685.136 491.987 685.409 490.697C685.682 489.408 686.078 487.275 686.302 485.985C686.525 484.696 687.269 481.398 687.913 478.67C688.583 475.942 689.451 472.024 689.872 469.99C690.269 467.932 690.79 465.155 691.013 463.791C691.236 462.427 691.633 459.699 691.881 457.715C692.129 455.731 692.526 451.714 692.749 448.788C692.972 445.862 693.195 442.861 693.369 440.852L698.874 438.695C701.925 437.529 706.24 435.719 708.496 434.702C710.753 433.685 714.15 432.074 716.06 431.131C717.969 430.164 721.267 428.428 723.375 427.263C725.483 426.122 729.228 423.989 731.683 422.551C734.138 421.113 738.106 418.707 740.486 417.219C742.867 415.707 746.835 413.152 749.29 411.516C751.745 409.879 755.266 407.474 757.101 406.184C758.936 404.87 761.788 402.811 763.425 401.572C765.062 400.356 767.79 398.224 769.501 396.86C771.212 395.521 773.94 393.264 775.576 391.875C777.213 390.487 779.966 388.081 781.677 386.519C783.388 384.957 786.537 382.006 788.67 379.972C790.803 377.914 795.266 373.4 798.589 369.929C801.912 366.457 806.475 361.596 808.707 359.141C810.939 356.686 816.345 350.66 820.71 345.75C825.074 340.84 830.877 334.368 833.58 331.367C836.308 328.367 841.317 323.109 844.739 319.712C848.162 316.29 852.402 312.272 854.138 310.784C855.899 309.272 858.031 307.585 858.85 306.99C859.693 306.395 861.677 305.279 863.239 304.486C864.802 303.692 867.827 302.328 869.935 301.485C872.043 300.642 875.738 299.228 878.118 298.336C880.499 297.443 885.583 295.633 889.402 294.293C893.221 292.954 899.222 290.97 902.718 289.855C906.24 288.739 910.48 287.449 912.142 287.003C913.828 286.532 916.978 285.688 919.16 285.143C921.342 284.597 924.566 283.878 926.352 283.506C928.112 283.159 930.939 282.638 932.601 282.39C934.287 282.117 937.511 281.671 939.792 281.423C942.099 281.15 945.967 280.828 948.422 280.679C950.877 280.53 953.382 280.357 954.002 280.332C954.622 280.282 958.887 280.233 963.475 280.208H963.5ZM175.079 312.148C175.154 312.148 175.674 312.446 176.22 312.843C176.766 313.239 178.179 314.603 179.345 315.893C180.51 317.182 182.965 320.009 184.825 322.192C186.66 324.374 190.454 329.011 193.232 332.483C196.034 335.955 199.927 340.989 201.911 343.642C203.895 346.296 206.425 349.768 207.516 351.33C208.607 352.892 212.872 359.265 217.014 365.465C221.13 371.665 225.644 378.36 227.007 380.344C228.371 382.328 230.851 385.824 232.488 388.156C234.125 390.462 237.076 394.554 239.06 397.207C241.019 399.86 244.143 403.927 245.978 406.258C247.838 408.565 250.64 411.987 252.203 413.822C253.79 415.657 256.071 418.286 257.286 419.65C258.526 421.013 262.097 424.733 265.222 427.932C268.371 431.106 273.182 435.744 275.91 438.224C278.638 440.679 282.779 444.274 285.086 446.184C287.392 448.093 291.583 451.367 294.385 453.475C297.187 455.558 302.048 458.98 305.173 461.063C308.322 463.146 313.381 466.345 316.456 468.18C319.531 470.015 324.317 472.768 327.119 474.305C329.921 475.818 335.328 478.62 339.147 480.505C342.966 482.39 348.322 484.944 351.05 486.184C353.778 487.424 358.415 489.432 361.341 490.648C364.267 491.863 368.954 493.723 371.757 494.789C374.559 495.83 379.469 497.591 382.668 498.682C385.867 499.749 391.397 501.509 394.943 502.6C398.489 503.667 403.176 505.055 405.359 505.675C407.541 506.271 412.277 507.585 415.898 508.552C419.519 509.519 426.041 511.181 430.405 512.272C434.77 513.363 441.515 514.95 445.408 515.843C449.302 516.735 456.444 518.223 461.279 519.19C466.115 520.133 471.248 521.15 472.687 521.422C474.125 521.67 477.126 522.216 479.358 522.613C481.589 522.985 483.524 523.357 483.648 523.431C483.796 523.505 483.053 526.109 481.986 529.383C480.945 532.582 479.978 535.483 479.878 535.83C479.754 536.177 479.035 538.484 478.266 540.964C477.522 543.468 476.902 545.551 476.902 545.626C476.902 545.7 476.63 545.75 476.283 545.75C475.935 545.75 472.464 545.13 468.545 544.386C464.602 543.642 458.899 542.526 455.824 541.906C452.749 541.286 446.946 540.046 442.928 539.153C438.911 538.26 431.943 536.599 427.429 535.458C422.941 534.318 417.237 532.83 414.782 532.111C412.327 531.416 407.987 530.127 405.111 529.259C402.259 528.391 396.778 526.605 392.959 525.316C389.14 524.026 383.164 521.918 379.692 520.629C376.22 519.339 370.591 517.157 367.169 515.793C363.771 514.429 358.415 512.197 355.266 510.858C352.141 509.494 347.504 507.436 344.974 506.295C342.445 505.155 336.096 502.08 330.839 499.451C325.582 496.847 318.961 493.4 316.084 491.788C313.232 490.201 309.14 487.87 307.032 486.605C304.925 485.341 300.858 482.737 297.981 480.852C295.129 478.943 290.988 476.041 288.805 474.405C286.623 472.743 283.052 469.916 280.87 468.106C278.688 466.271 275.513 463.493 273.802 461.931C272.091 460.369 269.041 457.467 267.008 455.483C264.999 453.499 261.13 449.532 258.427 446.68C255.724 443.803 252.029 439.786 250.219 437.728C248.384 435.694 245.21 431.999 243.127 429.544C241.068 427.114 237.82 423.196 235.935 420.889C234.05 418.558 230.578 414.144 228.223 411.094C225.892 408.019 221.998 402.787 219.593 399.439C217.187 396.091 212.922 389.891 210.095 385.676C207.293 381.435 203.523 375.632 201.738 372.781C199.952 369.904 197.324 365.564 195.885 363.109C194.447 360.654 192.289 356.91 191.124 354.802C189.934 352.694 187.652 348.329 186.04 345.13C184.428 341.931 182.345 337.567 181.428 335.459C180.51 333.351 179.221 330.127 178.551 328.317C177.882 326.531 176.964 323.779 176.493 322.241C176.022 320.729 175.402 318.274 175.129 316.786C174.831 315.323 174.583 313.76 174.559 313.314C174.534 312.843 174.608 312.396 174.732 312.322C174.856 312.223 175.005 312.148 175.079 312.148Z" fill="url(#paint0_linear_62_55)"/>
<defs>
<linearGradient id="paint0_linear_62_55" x1="-11.6804" y1="0.927859" x2="1052.83" y2="65.2697" gradientUnits="userSpaceOnUse">
<stop offset="0.02" stop-color="#256BED"/>
<stop offset="1" stop-color="#004B9E"/>
</linearGradient>
</defs>
</svg>
