<svg width="107" height="70" viewBox="0 0 107 70" fill="none" xmlns="http://www.w3.org/2000/svg">
<path id="Logo WhaleAI" fill-rule="evenodd" clip-rule="evenodd" d="M1.53024 0C1.59466 0 1.72606 0.0283421 1.82655 0.0644139C1.92703 0.100486 2.08163 0.1649 2.17438 0.208701C2.26714 0.252502 2.45265 0.352988 2.58663 0.430285C2.72062 0.510158 3.1509 0.772966 3.53996 1.01259C3.92903 1.25478 4.43919 1.56139 4.67365 1.69537C4.90812 1.83193 5.2843 2.03033 5.51104 2.13854C5.73777 2.24933 6.03408 2.38074 6.16806 2.43484C6.30204 2.48895 6.58031 2.58686 6.78644 2.65643C6.99256 2.72342 7.32236 2.82133 7.52076 2.87028C7.71915 2.91924 8.05668 2.99653 8.26796 3.03776C8.48182 3.07898 8.92756 3.15628 9.25994 3.20781C9.59232 3.25934 10.1437 3.34695 10.4838 3.40363C10.8239 3.46031 11.2877 3.54534 11.5144 3.59429C11.7412 3.64325 12.1096 3.736 12.3338 3.80042C12.5554 3.86483 12.8929 3.97305 13.0784 4.04261C13.2665 4.11218 13.5139 4.21009 13.6272 4.25905C13.7406 4.30542 13.9905 4.42394 14.1812 4.51928C14.3718 4.61461 14.6089 4.74086 14.7094 4.80012C14.8099 4.85681 14.9876 4.9676 15.1087 5.04489C15.2298 5.12219 15.4617 5.28451 15.6241 5.40561C15.7864 5.52671 15.9899 5.68388 16.075 5.75345C16.16 5.82301 16.379 6.01626 16.5619 6.18116C16.7449 6.34605 17.0412 6.63721 17.219 6.82787C17.3967 7.01854 17.6235 7.27361 17.724 7.39471C17.8244 7.51581 17.9971 7.73482 18.1104 7.88426C18.2238 8.0337 18.4222 8.31712 18.5562 8.51551C18.6876 8.71391 18.9736 9.16996 19.1874 9.53068C19.4039 9.89139 19.6203 10.2289 19.6693 10.283C19.7182 10.3371 19.7749 10.3835 19.7929 10.3835C19.8084 10.3835 19.8496 10.3552 19.8831 10.3217C19.914 10.2882 20.0274 10.0924 20.133 9.89139C20.2387 9.68785 20.401 9.39412 20.4938 9.23695C20.5865 9.08236 20.754 8.81439 20.8674 8.64434C20.9782 8.47429 21.1894 8.17799 21.3337 7.98732C21.478 7.79665 21.6738 7.54673 21.7692 7.43336C21.8619 7.31999 22.0706 7.0881 22.2278 6.92063C22.3875 6.75057 22.6555 6.48777 22.8256 6.33575C22.9956 6.18116 23.2636 5.957 23.4182 5.8359C23.5728 5.7148 23.882 5.49322 24.101 5.34635C24.32 5.19949 24.6523 4.99594 24.8353 4.89288C25.0182 4.78982 25.2913 4.6481 25.4408 4.57854C25.5902 4.50897 25.8505 4.39303 26.0205 4.32346C26.1906 4.25132 26.5152 4.13279 26.7419 4.0555C26.9687 3.98078 27.4041 3.85453 27.7082 3.77723C28.0122 3.69993 28.494 3.58914 28.7774 3.53246C29.0609 3.47577 29.8209 3.34179 30.4651 3.23358C31.1092 3.12794 31.8049 3.00426 32.011 2.96304C32.2171 2.92181 32.5418 2.84709 32.7325 2.79814C32.9231 2.74918 33.2297 2.65643 33.4152 2.59459C33.6008 2.53275 33.8842 2.42711 34.0465 2.35755C34.2088 2.28798 34.5979 2.10247 34.9097 1.9453C35.2214 1.78555 35.7908 1.47379 36.1722 1.24963C36.5535 1.02547 36.9967 0.775543 37.1513 0.69567C37.3059 0.618373 37.5043 0.53077 37.5893 0.502428C37.7001 0.466356 37.8134 0.450897 37.9887 0.450897C38.2051 0.450897 38.2515 0.458627 38.388 0.523041C38.4782 0.566842 38.5967 0.654445 38.6714 0.731742C38.7436 0.806462 38.8312 0.922407 38.8698 0.99455C38.9085 1.06412 38.9626 1.21356 38.9935 1.32693C39.0219 1.44287 39.0579 1.6928 39.0708 1.89377C39.0863 2.12308 39.0863 2.42454 39.0708 2.71827C39.0553 2.97334 39.0322 3.30314 39.0193 3.45258C39.0038 3.60202 38.9755 3.86226 38.9523 4.03231C38.9317 4.20236 38.8904 4.48578 38.8621 4.66356C38.8338 4.84135 38.7745 5.15311 38.7333 5.35923C38.6895 5.56536 38.6148 5.88227 38.5684 6.06779C38.5194 6.2533 38.4292 6.56506 38.3648 6.76346C38.3004 6.96185 38.1922 7.27619 38.1226 7.45913C38.0505 7.64206 37.9345 7.93321 37.8598 8.10326C37.7851 8.27332 37.6176 8.62631 37.4836 8.88911C37.3522 9.15192 37.1487 9.5281 37.0327 9.72649C36.9168 9.92489 36.7055 10.2676 36.5587 10.4866C36.4144 10.7056 36.1954 11.0199 36.0717 11.1822C35.948 11.3446 35.7496 11.5996 35.6259 11.7491C35.5023 11.8985 35.1699 12.2515 34.8865 12.5349C34.6005 12.8209 34.2294 13.1688 34.0594 13.3079C33.8893 13.4496 33.6059 13.6738 33.4281 13.8078C33.2503 13.9392 32.9257 14.1685 32.7067 14.3128C32.4877 14.457 32.1321 14.6786 31.9208 14.8023C31.707 14.9286 31.3205 15.1398 31.0577 15.2764C30.7949 15.4104 30.3723 15.6217 30.1172 15.7453C29.8622 15.8664 29.4448 16.0622 29.1897 16.1782C28.9346 16.2967 28.4889 16.5106 28.1977 16.6549C27.9065 16.8017 27.5536 16.9872 27.4118 17.0671C27.2701 17.1495 26.9738 17.3351 26.7548 17.4819C26.5358 17.6288 26.2215 17.8555 26.0566 17.9895C25.8917 18.1209 25.6186 18.3502 25.4537 18.4997C25.2862 18.6491 25.0156 18.9093 24.8533 19.0794C24.691 19.2494 24.4539 19.5174 24.3251 19.672C24.1989 19.8266 24.0185 20.0662 23.9232 20.2002C23.8304 20.3342 23.6733 20.5841 23.5728 20.7541C23.4723 20.9242 23.328 21.2076 23.2481 21.3854C23.1682 21.5632 23.06 21.8183 23.0111 21.9522C22.9595 22.0862 22.8797 22.331 22.8307 22.4933C22.7818 22.6556 22.7096 22.9236 22.6735 23.0859C22.6375 23.2483 22.5834 23.5446 22.5524 23.743C22.5035 24.0444 22.4958 24.2145 22.4932 24.7865C22.4932 25.3791 22.5009 25.513 22.5499 25.8042C22.5834 25.9871 22.6375 26.2551 22.6761 26.3968C22.7122 26.5385 22.7895 26.7756 22.8436 26.925C22.8977 27.0744 23.0214 27.345 23.1141 27.5305C23.2069 27.716 23.3589 27.9865 23.4517 28.136C23.5444 28.2854 23.6578 28.458 23.7016 28.5225C23.7454 28.5869 23.8923 28.8007 24.0288 28.9991C24.1654 29.1975 24.2891 29.4062 24.3071 29.4629C24.3277 29.5325 24.3432 29.8494 24.3509 30.4162C24.3586 30.8852 24.3509 31.7251 24.3354 32.2842C24.3174 32.8433 24.2942 33.4823 24.2787 33.7013C24.2659 33.9203 24.2427 34.1832 24.2272 34.2811C24.2118 34.379 24.1783 34.5104 24.1499 34.5696C24.1087 34.6598 24.0881 34.6804 24.0288 34.6804C23.9902 34.6804 23.9129 34.6495 23.8562 34.6083C23.7995 34.5696 23.6733 34.4382 23.5779 34.3171C23.48 34.1986 23.2687 33.9023 23.109 33.6627C22.9492 33.4231 22.6297 32.9181 22.4004 32.5419C22.1711 32.1657 21.8877 31.72 21.7743 31.5499C21.661 31.3799 21.4909 31.1428 21.3981 31.0217C21.308 30.9006 20.8803 30.4549 20.4525 30.0297C19.9166 29.4964 19.6177 29.1769 19.4863 28.9991C19.3807 28.8574 19.2364 28.6436 19.1668 28.5225C19.0973 28.4014 18.9865 28.1746 18.9195 28.02C18.8551 27.8654 18.7443 27.5691 18.6773 27.363C18.6103 27.1569 18.4222 26.4973 18.2599 25.8944C18.0976 25.2915 17.8889 24.5443 17.7987 24.2325C17.7059 23.9207 17.5513 23.4286 17.4534 23.1375C17.3581 22.8463 17.2112 22.4341 17.1313 22.2228C17.0515 22.0089 16.9226 21.692 16.8479 21.5142C16.7732 21.3365 16.6521 21.0711 16.5825 20.9216C16.513 20.7722 16.3738 20.4991 16.2708 20.3161C16.1677 20.1332 15.9745 19.8189 15.8431 19.6205C15.7117 19.4221 15.503 19.1361 15.3819 18.9815C15.2608 18.8295 15.0289 18.5718 14.8717 18.4069C14.712 18.242 14.4878 18.0282 14.3744 17.9328C14.2611 17.8375 14.0395 17.6623 13.8849 17.5463C13.7277 17.4304 13.4494 17.2423 13.2665 17.1264C13.0836 17.013 12.6997 16.7991 12.4162 16.6549C12.1328 16.508 11.6639 16.2864 11.3727 16.1602C11.0816 16.0313 10.4735 15.7788 10.02 15.5933C9.56655 15.4078 8.97394 15.163 8.70598 15.0471C8.43802 14.9311 8.03092 14.743 7.80418 14.6297C7.57744 14.5163 7.2193 14.3205 7.00545 14.1942C6.79417 14.068 6.4824 13.8619 6.3175 13.7382C6.1526 13.6145 5.92071 13.4316 5.80219 13.3311C5.68367 13.228 5.42601 12.9807 5.22761 12.7771C5.02922 12.5736 4.72776 12.2309 4.55771 12.0196C4.38765 11.8058 4.14803 11.494 4.02694 11.324C3.90326 11.1539 3.70744 10.8628 3.58634 10.6798C3.46782 10.4969 3.30034 10.2289 3.21274 10.0872C3.12771 9.9455 2.97054 9.67239 2.8649 9.48172C2.75669 9.29106 2.57891 8.94837 2.46296 8.72164C2.34959 8.4949 2.17954 8.12903 2.0842 7.91002C1.98887 7.69102 1.84974 7.34833 1.77502 7.14994C1.7003 6.95154 1.58435 6.62175 1.51994 6.41562C1.45295 6.2095 1.337 5.79983 1.2597 5.50094C1.18241 5.20206 1.08707 4.78466 1.04327 4.57338C0.99947 4.35953 0.947939 4.07611 0.92475 3.94213C0.904137 3.80815 0.862912 3.517 0.83457 3.29799C0.806228 3.07898 0.770156 2.67189 0.754697 2.3962C0.731507 2.01744 0.731507 1.79586 0.754697 1.4944C0.770156 1.27539 0.808804 0.989397 0.837147 0.863146C0.868065 0.734318 0.92475 0.561689 0.960822 0.476663C0.99947 0.391636 1.07677 0.270538 1.13345 0.208701C1.18756 0.146864 1.27516 0.0747201 1.32412 0.0489545C1.37307 0.023189 1.46583 0.00257655 1.53024 0ZM82.0608 15.3357C83.9314 15.3331 86.6162 15.3434 88.0256 15.3563C89.4349 15.3691 91.0582 15.3923 91.6328 15.4078C92.2073 15.4233 93.0189 15.4464 93.4363 15.4593C93.8538 15.4748 94.5159 15.5031 94.905 15.5237C95.2941 15.5444 95.8351 15.5804 96.1031 15.601C96.3711 15.6242 96.8013 15.6655 97.0564 15.6938C97.3115 15.7221 97.6645 15.7685 97.8423 15.7969C98.0201 15.8252 98.2983 15.8767 98.4606 15.9128C98.623 15.9489 98.8678 16.0133 99.0017 16.0571C99.1357 16.1009 99.3624 16.1885 99.5042 16.2555C99.6459 16.3225 99.937 16.4848 100.148 16.6188C100.362 16.7502 100.702 16.9743 100.908 17.1186C101.115 17.2603 101.421 17.4897 101.591 17.6262C101.761 17.7628 102.019 17.9818 102.161 18.1158C102.305 18.2497 102.503 18.4456 102.601 18.5512C102.702 18.6568 102.843 18.814 102.918 18.899C102.993 18.9841 103.165 19.2031 103.305 19.3886C103.441 19.5715 103.611 19.8111 103.683 19.9168C103.753 20.0224 103.895 20.2466 103.995 20.4115C104.098 20.5789 104.291 20.9216 104.425 21.1716C104.559 21.4241 104.747 21.8105 104.848 22.0295C104.946 22.2486 105.08 22.5629 105.147 22.7252C105.214 22.8875 105.301 23.1143 105.345 23.2276C105.389 23.341 105.482 23.6012 105.551 23.8074C105.621 24.0135 105.737 24.3665 105.806 24.5932C105.879 24.82 105.979 25.1781 106.036 25.3919C106.092 25.6032 106.159 25.8944 106.188 26.0361C106.216 26.1778 106.247 26.3917 106.257 26.5128C106.273 26.7034 106.268 26.7369 106.229 26.7704C106.19 26.8013 106.134 26.8065 105.897 26.791C105.739 26.7807 105.448 26.7498 105.25 26.7189C105.052 26.6905 104.624 26.6158 104.297 26.5514C103.969 26.4896 103.634 26.4251 103.549 26.4123C103.464 26.3968 103.209 26.3607 102.983 26.3324C102.756 26.304 102.305 26.268 101.978 26.2525C101.537 26.2319 101.21 26.2319 100.702 26.2525C100.326 26.2706 99.7876 26.3066 99.5042 26.335C99.2207 26.3633 98.7853 26.4148 98.5379 26.4509C98.2906 26.4844 97.9531 26.5385 97.7907 26.5669C97.6284 26.5952 97.3218 26.6519 97.108 26.6957C96.8967 26.7395 96.536 26.8194 96.3092 26.8735C96.0825 26.9276 95.6599 27.0384 95.3688 27.1182C95.0776 27.1981 94.5159 27.3733 94.1191 27.5047C93.7223 27.6361 93.1761 27.8268 92.9081 27.9299C92.6402 28.0329 92.2331 28.1952 92.0064 28.2931C91.7796 28.3885 91.4137 28.5482 91.1947 28.6513C90.9757 28.7518 90.6047 28.9347 90.3702 29.0558C90.1358 29.1769 89.7596 29.3882 89.5329 29.5222C89.3061 29.6561 88.9763 29.8648 88.7985 29.9859C88.6207 30.107 88.3425 30.3029 88.1802 30.424C88.0178 30.5451 87.7576 30.7486 87.6004 30.8774C87.4433 31.0037 87.2191 31.1943 87.098 31.3C86.9769 31.4056 86.6909 31.6684 86.4616 31.8823C86.2323 32.0961 85.5778 32.7454 85.0084 33.3277C84.439 33.9075 83.5423 34.8144 83.0167 35.3374C82.4911 35.8631 81.8006 36.5355 81.4811 36.8318C81.1616 37.1307 80.6695 37.5816 80.386 37.8367C80.1026 38.0918 79.662 38.4808 79.4069 38.7024C79.1519 38.9214 78.7396 39.2718 78.4923 39.4754C78.2449 39.6815 77.843 40.0062 77.6033 40.1994C77.3637 40.3901 76.9618 40.6967 76.7144 40.8822C76.4671 41.0677 76.0651 41.3537 75.8255 41.5212C75.5859 41.6861 75.1968 41.9412 74.9624 42.0854C74.7279 42.2323 74.393 42.4359 74.2152 42.5363C74.0374 42.6394 73.6354 42.8533 73.3185 43.0104C72.9578 43.1934 72.7362 43.2887 72.7233 43.2732C72.713 43.2578 72.6898 43.0568 72.6718 42.8223C72.6563 42.5879 72.6254 42.2529 72.6048 42.0751C72.5816 41.8974 72.5481 41.6371 72.5275 41.4954C72.5043 41.3537 72.4631 41.1167 72.4348 40.9672C72.4064 40.8178 72.342 40.5395 72.2905 40.3488C72.2415 40.1582 72.1565 39.8722 72.1024 39.7176C72.0508 39.5604 71.9529 39.3002 71.8859 39.1379C71.819 38.9755 71.7004 38.7205 71.6206 38.571C71.5433 38.4216 71.4016 38.1845 71.3062 38.0428C71.2135 37.9037 71.0383 37.6847 70.9172 37.5584C70.7961 37.4296 70.6286 37.2776 70.5436 37.2183C70.4585 37.1565 70.3168 37.0715 70.2266 37.0277C70.139 36.9839 70.0051 36.9246 69.9329 36.8963C69.8582 36.8679 69.6984 36.8241 69.5773 36.7958C69.4562 36.7674 69.2424 36.7314 68.843 36.685L68.8508 27.9453C68.8533 23.14 68.8688 18.7676 68.8817 18.2291C68.8946 17.6906 68.9177 17.1624 68.9332 17.0568C68.9461 16.9512 68.9822 16.7708 69.0105 16.6574C69.0388 16.5441 69.0981 16.3766 69.1445 16.2838C69.1934 16.1833 69.2836 16.0597 69.3687 15.9746C69.4588 15.8845 69.5851 15.7994 69.7062 15.7402C69.8118 15.6886 69.9922 15.6217 70.1055 15.5933C70.2189 15.5624 70.4379 15.5212 70.5951 15.5006C70.7523 15.4774 71.0408 15.449 71.2392 15.4336C71.4376 15.4207 71.9066 15.4026 72.2827 15.3923C72.6589 15.3846 74.2461 15.3666 75.8126 15.3563C77.3792 15.3485 80.1902 15.3382 82.0608 15.3357ZM78.196 28.337C78.0697 28.3808 77.8842 28.4606 77.7889 28.5147C77.691 28.5688 77.5415 28.6693 77.4539 28.7415C77.3663 28.811 77.2349 28.945 77.1602 29.0378C77.0829 29.1305 76.9721 29.3032 76.9103 29.4243C76.8484 29.5454 76.7685 29.7309 76.7376 29.8365C76.6835 30.0066 76.6758 30.0813 76.6758 30.4549C76.6758 30.8311 76.6835 30.9032 76.7376 31.0733C76.7711 31.1789 76.8407 31.3541 76.8948 31.4597C76.9489 31.5654 77.0597 31.7406 77.1447 31.8462C77.2272 31.9519 77.3715 32.0987 77.4642 32.1734C77.5544 32.2456 77.727 32.3564 77.8481 32.4208C77.9692 32.4852 78.1547 32.5651 78.2604 32.5986C78.4304 32.6501 78.5051 32.6578 78.8788 32.6578C79.2523 32.6578 79.3271 32.6501 79.4971 32.596C79.6028 32.5651 79.7883 32.4852 79.9094 32.4234C80.0305 32.359 80.2005 32.2507 80.2907 32.1812C80.3783 32.109 80.5149 31.975 80.5947 31.8771C80.672 31.7818 80.7957 31.5886 80.8653 31.4469C80.9349 31.3051 81.0173 31.0913 81.0456 30.9702C81.092 30.7847 81.0998 30.6945 81.0894 30.3776C81.0791 30.0426 81.0688 29.9808 80.9993 29.7721C80.9555 29.6433 80.873 29.4603 80.8189 29.3624C80.7648 29.2671 80.6617 29.1151 80.5922 29.0275C80.52 28.9424 80.3912 28.811 80.3036 28.7415C80.216 28.6693 80.0666 28.5688 79.9686 28.5147C79.8733 28.4606 79.7187 28.3885 79.626 28.3576C79.5332 28.3241 79.3941 28.2854 79.3168 28.27C79.2395 28.2545 79.1003 28.239 79.0076 28.2313C78.9148 28.2262 78.7473 28.2287 78.634 28.239C78.5206 28.2519 78.3222 28.2957 78.196 28.337ZM67.7866 39.2255C68.1139 39.2306 68.3071 39.2461 68.4437 39.277C68.5493 39.3028 68.7425 39.3723 68.8688 39.4342C69.0363 39.514 69.1471 39.5888 69.263 39.7021C69.3506 39.7897 69.4769 39.9443 69.5439 40.0448C69.6108 40.1479 69.7191 40.3489 69.786 40.4906C69.8505 40.6323 69.9432 40.859 69.987 40.993C70.0334 41.127 70.103 41.3717 70.1442 41.5341C70.1854 41.6964 70.2498 41.9978 70.2833 42.204C70.3194 42.4101 70.3684 42.7863 70.3915 43.0413C70.425 43.3866 70.4353 43.7602 70.4353 44.4971C70.4353 45.149 70.4199 45.7004 70.3915 46.1074C70.3684 46.4476 70.3245 46.9216 70.2988 47.1638C70.2704 47.4035 70.2292 47.7281 70.2086 47.8853C70.1854 48.0399 70.1442 48.3078 70.1159 48.4779C70.0875 48.6479 70.0179 49.0009 69.9638 49.2637C69.9071 49.5265 69.8041 49.9594 69.7319 50.2299C69.6598 50.4979 69.5361 50.9282 69.4588 51.1833C69.379 51.4383 69.2295 51.8892 69.1264 52.1881C69.0234 52.4844 68.8559 52.9379 68.758 53.193C68.6601 53.4481 68.5132 53.8139 68.4359 54.0046C68.3586 54.1953 68.1989 54.574 68.0829 54.842C67.967 55.1099 67.7609 55.5686 67.6269 55.8597C67.4929 56.1509 67.2301 56.6894 67.042 57.0578C66.8513 57.4263 66.6194 57.8668 66.5241 58.0369C66.4288 58.207 66.2201 58.5677 66.0603 58.8356C65.9006 59.1036 65.6146 59.5571 65.4265 59.8405C65.241 60.1239 64.9653 60.5233 64.8159 60.7294C64.6664 60.9355 64.3907 61.2937 64.2052 61.5281C64.0197 61.7626 63.7827 62.0512 63.677 62.1723C63.574 62.2934 63.324 62.5716 63.123 62.7906C62.9221 63.0096 62.5717 63.3704 62.3449 63.5894C62.1208 63.8084 61.7858 64.1227 61.6003 64.2876C61.4174 64.4525 61.0824 64.7411 60.8531 64.9318C60.6264 65.1224 60.2193 65.4471 59.9513 65.6532C59.6833 65.8593 59.2737 66.1659 59.0392 66.3334C58.8047 66.5009 58.3487 66.8152 58.0214 67.0291C57.6942 67.2455 57.2253 67.5444 56.9779 67.6912C56.7306 67.8407 56.3647 68.052 56.1663 68.1628C55.9679 68.2736 55.5917 68.4694 55.3289 68.5982C55.0661 68.7296 54.726 68.8893 54.5689 68.9589C54.4117 69.0285 54.1102 69.1522 53.8989 69.2372C53.6851 69.3222 53.3321 69.4536 53.1131 69.5283C52.8941 69.6031 52.5643 69.7061 52.3788 69.7576C52.1933 69.8092 51.9047 69.8813 51.7346 69.92C51.544 69.9612 51.325 69.9921 51.1601 69.9973C50.9127 70.005 50.8921 69.9998 50.7865 69.9354C50.7272 69.8994 50.6628 69.8504 50.6447 69.8272C50.6267 69.804 50.5778 69.7138 50.534 69.6237C50.4927 69.5361 50.4412 69.3634 50.4206 69.2372C50.3974 69.1109 50.3819 68.861 50.3819 68.6652C50.3819 68.4745 50.4 68.1782 50.418 68.0082C50.4386 67.8381 50.4747 67.5882 50.4979 67.4542C50.5211 67.3202 50.5674 67.0651 50.6035 66.8874C50.6396 66.7096 50.7375 66.2638 50.8225 65.8954C50.9076 65.5269 51.1626 64.4886 51.3868 63.5894C51.6135 62.6902 51.9098 61.5359 52.0438 61.0257C52.1778 60.5155 52.353 59.8662 52.4329 59.5828C52.5128 59.2994 52.6622 58.7712 52.7653 58.4105C52.8709 58.0498 53.0435 57.4623 53.1517 57.1093C53.26 56.7538 53.4223 56.2333 53.515 55.9499C53.6078 55.6665 53.7727 55.1847 53.8783 54.8806C53.984 54.5766 54.1205 54.1927 54.1824 54.0304C54.2442 53.868 54.3911 53.4841 54.5122 53.1801C54.6333 52.8761 54.8471 52.3582 54.9888 52.0335C55.1305 51.7063 55.3264 51.2657 55.4268 51.0544C55.5248 50.8406 55.718 50.4412 55.8571 50.1655C55.9963 49.8898 56.2307 49.4364 56.3802 49.1607C56.5296 48.885 56.7873 48.4263 56.9522 48.1429C57.1171 47.8595 57.3928 47.4138 57.5602 47.151C57.7303 46.8881 57.9828 46.512 58.1245 46.3136C58.2636 46.1152 58.4955 45.8008 58.6372 45.6179C58.779 45.4324 59.0598 45.0846 59.2582 44.8449C59.4592 44.6027 59.8276 44.1853 60.075 43.9174C60.3223 43.6468 60.7397 43.2191 61 42.9641C61.2628 42.709 61.6544 42.3431 61.8734 42.1499C62.0924 41.9566 62.4222 41.6784 62.6077 41.5315C62.7932 41.3846 63.0818 41.163 63.2519 41.0419C63.4219 40.9183 63.7053 40.725 63.8831 40.6142C64.0609 40.5009 64.3443 40.3282 64.5144 40.2329C64.6844 40.135 64.9627 39.9907 65.1328 39.9083C65.3028 39.8284 65.5347 39.7227 65.6481 39.6789C65.7615 39.6326 65.9702 39.5553 66.1119 39.5063C66.2536 39.4574 66.4803 39.3904 66.6143 39.3543C66.7483 39.3208 66.9647 39.2744 67.091 39.2538C67.2481 39.2306 67.4697 39.2203 67.7866 39.2255ZM64.553 5.58082C64.6458 5.58855 64.7901 5.61689 64.8751 5.64266C64.9601 5.671 65.0993 5.73541 65.1843 5.78437C65.2693 5.8359 65.3827 5.92092 65.4368 5.97245C65.4909 6.02398 65.5759 6.12447 65.6249 6.19661C65.6739 6.26618 65.746 6.40531 65.8542 6.68616L65.8671 37.1153L65.3982 37.2905C65.1379 37.3884 64.7463 37.5481 64.5273 37.6486C64.3083 37.7465 63.9939 37.8985 63.5353 38.1356L63.4116 37.999C63.3446 37.9243 63.257 37.7981 63.2158 37.7208C63.1746 37.6435 63.1231 37.5095 63.0999 37.4245C63.0638 37.2853 63.0586 35.7755 63.0586 22.0167C63.0586 8.02081 63.0612 6.75057 63.0999 6.62175C63.1231 6.54445 63.1772 6.41047 63.221 6.32544C63.2622 6.24042 63.3575 6.10901 63.4297 6.03171C63.5018 5.95442 63.6306 5.8462 63.7157 5.7921C63.8007 5.73799 63.9295 5.67357 63.9991 5.65038C64.0686 5.6272 64.1846 5.60143 64.2567 5.58855C64.3263 5.57824 64.4603 5.57566 64.553 5.58082ZM58.6707 12.3958C58.7738 12.3932 58.9361 12.4113 59.034 12.4319C59.1294 12.4551 59.2788 12.5092 59.369 12.5556C59.4592 12.6019 59.588 12.6844 59.655 12.7411C59.722 12.7977 59.8173 12.8931 59.8663 12.9523C59.9152 13.0142 59.9899 13.1301 60.0363 13.21C60.0827 13.2924 60.1394 13.4393 60.1652 13.5398C60.1909 13.6429 60.209 13.8103 60.209 13.9263C60.2064 14.0396 60.1858 14.2071 60.16 14.2999C60.1368 14.3926 60.0904 14.5189 60.0569 14.5833C60.026 14.6477 59.9461 14.7688 59.8817 14.8538C59.8173 14.9389 59.6988 15.06 59.6163 15.1218C59.5313 15.1836 59.3999 15.2635 59.3226 15.297C59.2453 15.3331 59.1062 15.3769 59.0134 15.4001C58.9026 15.4258 58.7661 15.4336 58.6141 15.4284C58.4492 15.4207 58.3255 15.3975 58.1889 15.3485C58.0833 15.3099 57.9313 15.2352 57.854 15.1836C57.7767 15.1321 57.6504 15.0239 57.5757 14.9466C57.501 14.8667 57.4005 14.7276 57.3541 14.6348C57.3052 14.5421 57.2459 14.3978 57.2201 14.3128C57.1918 14.2123 57.1763 14.0731 57.1763 13.9134C57.1763 13.7382 57.1918 13.6171 57.2304 13.4883C57.2614 13.3878 57.3284 13.2383 57.3799 13.1533C57.4314 13.0683 57.5087 12.9575 57.5525 12.9085C57.5963 12.8596 57.6839 12.7746 57.7483 12.7205C57.8128 12.6663 57.939 12.589 58.0292 12.5478C58.1168 12.504 58.2559 12.4551 58.3384 12.4345C58.4182 12.4138 58.5703 12.3958 58.6733 12.3958H58.6707ZM52.8915 12.7823C52.9482 12.7797 53.0667 12.7926 53.1569 12.8055C53.2445 12.8209 53.3939 12.8673 53.4918 12.9111C53.5872 12.9549 53.716 13.0322 53.7804 13.0837C53.8448 13.1353 53.9299 13.2177 53.9737 13.2667C54.0149 13.3156 54.0793 13.3955 54.1154 13.447C54.1489 13.4986 54.2107 13.6326 54.3215 13.952V47.1252L54.118 47.4653C54.0072 47.6534 53.7856 48.0399 53.6284 48.3233C53.4687 48.6067 53.162 49.1916 52.5488 50.4103L52.4355 50.3716C52.3762 50.351 52.2731 50.3047 52.2087 50.2712C52.1443 50.2377 52.0155 50.132 51.9227 50.0393C51.8016 49.9182 51.7269 49.8125 51.6625 49.676C51.611 49.5703 51.5568 49.4209 51.5414 49.3462C51.5208 49.2508 51.513 44.2884 51.513 31.6272C51.513 18.966 51.5208 14.0036 51.5414 13.9057C51.5568 13.8335 51.611 13.6841 51.6599 13.5784C51.7295 13.4367 51.8016 13.3362 51.9356 13.2023C52.0567 13.0837 52.1752 12.991 52.286 12.9395C52.3788 12.8931 52.5282 12.839 52.621 12.8209C52.7137 12.8003 52.8348 12.7823 52.8915 12.7823ZM58.6759 17.652C58.797 17.652 58.9593 17.6674 59.0366 17.688C59.1139 17.7087 59.2531 17.7628 59.3458 17.8091C59.4514 17.8607 59.5751 17.9534 59.6808 18.0591C59.7967 18.1776 59.8792 18.2884 59.9436 18.4224C59.9951 18.528 60.0492 18.6774 60.0647 18.7496C60.0853 18.8475 60.093 21.9857 60.093 40.4906L59.8044 40.7353C59.6447 40.8693 59.3175 41.1605 59.0778 41.3795C58.8356 41.5985 58.3976 42.0159 58.1039 42.307C57.635 42.7708 57.5654 42.8301 57.5345 42.7966C57.5139 42.776 57.4675 42.6987 57.4314 42.6291C57.3953 42.557 57.349 42.4307 57.3258 42.3457C57.2897 42.2065 57.2846 41.0832 57.2846 30.5373C57.2846 22.2202 57.2923 18.8475 57.3129 18.7496C57.3284 18.6774 57.3825 18.528 57.434 18.4224C57.4984 18.291 57.5809 18.175 57.6968 18.0591C57.8153 17.9406 57.921 17.8633 58.0575 17.7963C58.1632 17.7447 58.2971 17.6932 58.3538 17.6777C58.4105 17.6649 58.5548 17.6546 58.6759 17.652ZM41.2712 20.6227C41.4851 20.6279 41.5907 20.6434 41.7092 20.6872C41.7942 20.7181 41.9153 20.7773 41.9798 20.8186C42.0442 20.8598 42.1472 20.9422 42.2091 21.0041C42.2709 21.0659 42.3688 21.1844 42.4229 21.2695C42.477 21.3545 42.5492 21.5039 42.6368 21.7848V48.2202L42.5801 48.4006C42.5492 48.4985 42.477 48.6505 42.4229 48.7355C42.3662 48.8206 42.2761 48.9365 42.2219 48.9906C42.1678 49.0447 42.057 49.1323 41.9798 49.1839C41.9025 49.2354 41.7685 49.2998 41.6834 49.3281C41.5649 49.3668 41.4593 49.3797 41.2325 49.3797C41.0058 49.3797 40.9002 49.3668 40.7816 49.3281C40.6966 49.2998 40.5626 49.2354 40.4853 49.1839C40.408 49.1323 40.2973 49.0447 40.2431 48.9906C40.189 48.9365 40.1014 48.8257 40.0499 48.7484C39.9984 48.6711 39.9262 48.5191 39.8283 48.2202V21.7848L39.8927 21.5915C39.9262 21.4859 39.9984 21.3339 40.0499 21.2566C40.0989 21.1793 40.2097 21.0505 40.2947 20.9732C40.3771 20.8933 40.5111 20.798 40.5884 20.7593C40.6657 20.7207 40.7894 20.6717 40.8589 20.6511C40.9465 20.6253 41.0805 20.6176 41.2712 20.6227ZM47.2823 21.5683C47.3983 21.5683 47.5554 21.5786 47.6302 21.5941C47.7023 21.6096 47.8569 21.6663 47.9703 21.7204C48.0836 21.777 48.2331 21.8698 48.3026 21.9316C48.3722 21.9935 48.4856 22.1223 48.5551 22.2228C48.6299 22.3284 48.7072 22.4882 48.7484 22.6093C48.8077 22.7819 48.818 22.8592 48.8154 23.0859C48.8154 23.2792 48.7999 23.4003 48.7638 23.5111C48.7381 23.5961 48.6737 23.7404 48.6221 23.8331C48.5706 23.9285 48.4521 24.0753 48.3516 24.1732C48.2331 24.2892 48.1146 24.3716 47.9832 24.436C47.8775 24.4876 47.7075 24.5468 47.6096 24.5674C47.5116 24.5881 47.3725 24.6061 47.3004 24.6061C47.2308 24.6061 47.0891 24.5881 46.9912 24.5674C46.8933 24.5468 46.7232 24.4876 46.6176 24.436C46.4759 24.3665 46.3728 24.2892 46.2311 24.1449C46.1023 24.0161 46.0095 23.8924 45.9554 23.7816C45.909 23.6888 45.8549 23.5446 45.8343 23.4595C45.8111 23.3745 45.7931 23.2019 45.7931 23.073C45.7931 22.9442 45.8085 22.7819 45.8266 22.7123C45.8472 22.6402 45.8936 22.5139 45.9322 22.4289C45.9709 22.3439 46.0636 22.1996 46.1357 22.1094C46.213 22.0141 46.3445 21.8956 46.4501 21.826C46.548 21.759 46.7052 21.6791 46.7979 21.6508C46.8907 21.6199 46.9886 21.589 47.0169 21.5838C47.0453 21.5761 47.1638 21.5709 47.2823 21.5683ZM34.9071 23.0705C35.1055 23.0756 35.2111 23.0937 35.358 23.1478C35.4636 23.1838 35.6156 23.2586 35.6929 23.3101C35.7702 23.3616 35.8939 23.4647 35.9635 23.5368C36.0356 23.6115 36.1335 23.7507 36.1876 23.8486C36.2392 23.9465 36.301 24.0959 36.3268 24.181C36.3577 24.2815 36.3731 24.4206 36.3731 24.5803C36.3731 24.7401 36.3577 24.8792 36.3268 24.9797C36.301 25.0647 36.2417 25.209 36.1928 25.3018C36.1438 25.3945 36.0562 25.5259 35.9944 25.5955C35.9351 25.6651 35.8037 25.7759 35.7058 25.8403C35.6079 25.9073 35.4507 25.9871 35.358 26.0206C35.2472 26.0593 35.1055 26.085 34.9457 26.0928C34.7679 26.1031 34.652 26.0928 34.5206 26.0619C34.4227 26.0387 34.2707 25.9871 34.1856 25.9459C34.1006 25.9047 33.9718 25.8222 33.8996 25.7604C33.8301 25.6986 33.727 25.5981 33.6729 25.5337C33.6214 25.4692 33.5389 25.3353 33.4925 25.2374C33.4436 25.1369 33.3895 24.9926 33.3714 24.9153C33.3534 24.838 33.3405 24.686 33.3405 24.5803C33.3405 24.4747 33.3534 24.3227 33.3714 24.2454C33.3895 24.1681 33.4462 24.0161 33.4951 23.9104C33.5673 23.761 33.6343 23.6708 33.7966 23.5111C33.9434 23.3668 34.0568 23.2792 34.1805 23.2199C34.2758 23.1761 34.4201 23.1194 34.5026 23.0988C34.5979 23.0756 34.737 23.0653 34.9071 23.0705ZM28.7749 24.6602C28.847 24.6602 28.9861 24.6757 29.084 24.6989C29.1819 24.7195 29.3469 24.7787 29.4448 24.8328C29.5478 24.8869 29.6921 24.9952 29.7797 25.0828C29.8647 25.1678 29.9704 25.3069 30.0168 25.3919C30.0606 25.477 30.1172 25.611 30.1456 25.6883C30.1894 25.8248 30.192 26.116 30.1997 33.302C30.2048 39.4986 30.1997 40.8101 30.1713 40.9801C30.1507 41.1012 30.0992 41.2609 30.0477 41.3666C29.9884 41.4877 29.9008 41.6062 29.7797 41.7299C29.6457 41.8664 29.5504 41.936 29.4061 42.0056C29.3005 42.0545 29.151 42.1086 29.0789 42.1241C29.0042 42.1396 28.8728 42.1524 28.7877 42.1524C28.7027 42.1524 28.5713 42.1396 28.4992 42.1241C28.4244 42.1086 28.275 42.0545 28.1694 42.0056C28.0251 41.936 27.9297 41.8664 27.7958 41.7299C27.6824 41.6139 27.5845 41.4851 27.5329 41.3795C27.4866 41.2867 27.4325 41.1295 27.4093 41.0316C27.3758 40.8719 27.3706 39.9495 27.3706 33.4231C27.3706 26.8529 27.3758 25.9743 27.4093 25.7965C27.435 25.6779 27.4866 25.5259 27.5458 25.4203C27.5974 25.3224 27.6875 25.1884 27.7442 25.1266C27.8009 25.0621 27.9117 24.9694 27.989 24.9179C28.0663 24.8663 28.1771 24.8019 28.2338 24.7762C28.2905 24.7504 28.4064 24.7143 28.4914 24.6963C28.5765 24.6757 28.7053 24.6602 28.7749 24.6602ZM47.3905 26.6055C47.4962 26.6132 47.6534 26.6416 47.7384 26.6673C47.8234 26.6957 47.9625 26.7601 48.0476 26.8168C48.1326 26.8709 48.2666 26.9843 48.3439 27.0693C48.4212 27.1543 48.5165 27.2857 48.5526 27.363C48.5912 27.4403 48.6402 27.5691 48.6634 27.6464C48.702 27.7753 48.7046 28.6925 48.7046 38.8287C48.7046 48.7639 48.6994 49.8847 48.6634 50.0238C48.6402 50.1088 48.5861 50.248 48.5423 50.333C48.4959 50.418 48.3851 50.5649 48.2923 50.6576C48.1712 50.7787 48.0708 50.8535 47.9316 50.9179C47.826 50.9694 47.674 51.0235 47.5967 51.0415C47.5091 51.0622 47.3674 51.0699 47.2231 51.0596C47.0865 51.0519 46.9268 51.0235 46.8366 50.9926C46.7516 50.9617 46.6176 50.8947 46.5403 50.8432C46.463 50.7916 46.3419 50.6886 46.2749 50.619C46.2053 50.5443 46.1048 50.3974 46.0481 50.2815C45.9915 50.1681 45.9348 50.0109 45.9219 49.9336C45.9039 49.8409 45.8987 45.9864 45.909 27.7108L45.9734 27.5434C46.0095 27.4506 46.0791 27.3141 46.128 27.2368C46.177 27.1595 46.2775 27.0435 46.347 26.9791C46.4192 26.9147 46.53 26.8297 46.5918 26.7936C46.6562 26.7575 46.7593 26.7086 46.8237 26.6828C46.8881 26.6596 46.9989 26.6287 47.0685 26.6158C47.1406 26.6029 47.2849 26.6004 47.3905 26.6055ZM34.9457 27.7418C35.023 27.7469 35.139 27.765 35.2034 27.7804C35.2678 27.7959 35.4018 27.85 35.4997 27.8989C35.6182 27.9582 35.7393 28.0484 35.8501 28.1592C35.9583 28.2674 36.0511 28.3936 36.1103 28.5096C36.1593 28.6075 36.2134 28.7544 36.2314 28.8316C36.252 28.9373 36.2598 31.0166 36.2469 45.5406L36.1747 45.721C36.1361 45.8189 36.0511 45.9709 35.9867 46.0559C35.9248 46.1409 35.8166 46.2543 35.7496 46.311C35.6826 46.3651 35.5641 46.4424 35.4868 46.481C35.4095 46.5197 35.2884 46.5661 35.2163 46.5867C35.1441 46.6073 34.9766 46.6228 34.8427 46.6228C34.6597 46.6202 34.5541 46.6073 34.4304 46.5635C34.3377 46.5326 34.1934 46.463 34.1083 46.4089C34.0233 46.3548 33.8919 46.2414 33.8146 46.1564C33.7399 46.074 33.642 45.9374 33.6033 45.8549C33.5621 45.7751 33.5106 45.6359 33.49 45.5458C33.4565 45.4066 33.4513 44.3502 33.4513 37.2055C33.4513 31.4494 33.459 28.9785 33.4797 28.8703C33.4951 28.7853 33.5467 28.6333 33.593 28.5353C33.642 28.4349 33.7322 28.2957 33.794 28.2262C33.8558 28.154 33.9795 28.0484 34.0723 27.9865C34.1624 27.9247 34.3016 27.8526 34.3789 27.8242C34.4562 27.7959 34.585 27.7624 34.6623 27.7495C34.7396 27.7366 34.8684 27.734 34.9457 27.7418ZM100.81 29.0172C101.31 29.0146 101.998 29.0275 102.431 29.0507C102.846 29.0738 103.552 29.1202 103.998 29.1563C104.443 29.1898 105.041 29.2387 105.325 29.2594C105.608 29.28 105.884 29.3109 105.935 29.3238C105.989 29.3367 106.062 29.3753 106.098 29.4114C106.134 29.4474 106.18 29.5428 106.203 29.6227C106.237 29.7412 106.244 29.8391 106.232 30.0942C106.224 30.2719 106.193 30.5373 106.165 30.6868C106.136 30.8362 106.095 31.0372 106.072 31.1377C106.049 31.2356 105.979 31.5035 105.915 31.7303C105.85 31.957 105.729 32.3564 105.642 32.6192C105.557 32.882 105.412 33.2917 105.325 33.5339C105.234 33.7735 105.111 34.1059 105.046 34.2682C104.982 34.4305 104.848 34.7551 104.75 34.9896C104.65 35.2241 104.469 35.6286 104.346 35.8914C104.224 36.1542 104.036 36.5355 103.928 36.7417C103.82 36.9478 103.645 37.2724 103.539 37.4631C103.431 37.6538 103.258 37.9552 103.153 38.133C103.044 38.3108 102.89 38.5659 102.805 38.6999C102.72 38.8338 102.524 39.1353 102.367 39.3698C102.212 39.6042 101.973 39.9521 101.839 40.1427C101.702 40.3334 101.393 40.7559 101.151 41.0832C100.908 41.4078 100.496 41.9412 100.236 42.2684C99.9757 42.593 99.6175 43.0336 99.4397 43.2475C99.262 43.4588 98.9373 43.8427 98.7183 44.0977C98.4967 44.3528 98.1772 44.711 98.0098 44.8965C97.8423 45.0794 97.4635 45.4736 97.1724 45.7673C96.8812 46.0636 96.4612 46.4707 96.2422 46.6717C96.0232 46.8727 95.7115 47.151 95.5517 47.2875C95.3945 47.4241 95.0699 47.692 94.8303 47.8801C94.5932 48.0708 94.266 48.3233 94.1037 48.4444C93.9414 48.5629 93.6966 48.7407 93.5626 48.8386C93.4286 48.9339 93.0396 49.2019 92.6995 49.4312C92.3593 49.6631 91.8956 49.9697 91.6688 50.114C91.4421 50.2609 91.0298 50.5211 90.7542 50.6937C90.4785 50.8663 90.0662 51.1214 89.8395 51.2606C89.6127 51.3997 88.9531 51.7991 88.3708 52.1495C87.7885 52.4973 87.0542 52.9353 86.7347 53.1208C86.4152 53.3063 85.9128 53.5898 85.6139 53.7521C85.315 53.9144 84.8821 54.1463 84.6477 54.2674C84.4132 54.3911 83.9726 54.6075 83.6686 54.7518C83.3646 54.8961 82.8776 55.1202 82.5864 55.2465C82.2953 55.3753 81.7903 55.5866 81.4656 55.718C81.1384 55.8494 80.6231 56.0504 80.3191 56.1637C80.015 56.2771 79.51 56.46 79.1982 56.5683C78.8865 56.6791 78.3351 56.8671 77.9744 56.9857C77.6137 57.1042 77.0159 57.2923 76.6474 57.4056C76.279 57.5164 75.7972 57.6607 75.5782 57.7251C75.3592 57.787 75.0036 57.8875 74.7923 57.9441C74.5785 58.0008 74.295 58.0755 74.1611 58.1116C74.0271 58.1451 73.6844 58.2301 73.401 58.2946C73.1175 58.3615 72.695 58.4543 72.4605 58.5007C72.2261 58.5496 71.8318 58.6218 71.5845 58.6656C71.3371 58.7068 70.9481 58.7661 70.7213 58.7944C70.4946 58.8227 70.1519 58.8588 69.9613 58.8769C69.7706 58.8923 69.5439 58.9 69.4588 58.8949C69.3352 58.8846 69.2939 58.8691 69.2553 58.8202C69.2192 58.7712 69.2115 58.7326 69.2244 58.6424C69.2321 58.578 69.263 58.4337 69.2939 58.3203C69.3223 58.207 69.4176 57.9055 69.5026 57.6504C69.5877 57.3953 69.7654 56.8955 69.8968 56.5425C70.0283 56.1869 70.2833 55.5273 70.4637 55.0739C70.6441 54.6204 70.8553 54.087 70.9326 53.8886C71.0099 53.6903 71.1465 53.3373 71.2367 53.1028C71.3243 52.8683 71.4686 52.4638 71.5536 52.201C71.6386 51.9382 71.7442 51.5904 71.788 51.428C71.8318 51.2657 71.8885 51.0209 71.9169 50.887C71.9452 50.753 71.9864 50.5314 72.0096 50.3974C72.0328 50.2634 72.1101 49.9207 72.1771 49.6373C72.2467 49.3539 72.3368 48.9468 72.3806 48.7355C72.4219 48.5217 72.476 48.2331 72.4992 48.0914C72.5224 47.9497 72.5636 47.6663 72.5894 47.4601C72.6151 47.254 72.6563 46.8366 72.6795 46.5326C72.7027 46.2285 72.7259 45.9168 72.7439 45.7081L73.3159 45.4839C73.6329 45.3628 74.0812 45.1747 74.3157 45.0691C74.5501 44.9635 74.9031 44.796 75.1015 44.6981C75.2999 44.5976 75.6426 44.4172 75.8616 44.2961C76.0806 44.1776 76.4697 43.956 76.7247 43.8066C76.9798 43.6571 77.3921 43.4072 77.6394 43.2526C77.8868 43.0955 78.299 42.8301 78.5541 42.66C78.8092 42.49 79.1751 42.24 79.3657 42.1061C79.5564 41.9695 79.8527 41.7556 80.0227 41.6268C80.1928 41.5006 80.4762 41.279 80.654 41.1373C80.8318 40.9981 81.1152 40.7637 81.2853 40.6194C81.4553 40.4751 81.7413 40.2252 81.9191 40.0629C82.0969 39.9005 82.4241 39.5939 82.6457 39.3826C82.8673 39.1688 83.3311 38.6999 83.6763 38.3391C84.0216 37.9784 84.4957 37.4734 84.7276 37.2183C84.9594 36.9633 85.5211 36.3372 85.9746 35.827C86.4281 35.3168 87.031 34.6444 87.3119 34.3326C87.5953 34.0208 88.1157 33.4746 88.4713 33.1216C88.8269 32.766 89.2675 32.3486 89.4478 32.1941C89.6308 32.0369 89.8523 31.8617 89.9374 31.7998C90.025 31.738 90.2311 31.6221 90.3934 31.5396C90.5557 31.4572 90.8701 31.3154 91.0891 31.2278C91.3081 31.1402 91.692 30.9934 91.9394 30.9006C92.1867 30.8079 92.7149 30.6198 93.1117 30.4806C93.5085 30.3415 94.132 30.1354 94.4953 30.0194C94.8612 29.9035 95.3018 29.7695 95.4744 29.7231C95.6496 29.6742 95.9768 29.5866 96.2036 29.5299C96.4303 29.4732 96.7653 29.3985 96.9508 29.3598C97.1337 29.3238 97.4274 29.2697 97.6001 29.2439C97.7753 29.2156 98.1102 29.1692 98.3473 29.1434C98.5869 29.1151 98.9889 29.0816 99.2439 29.0661C99.499 29.0507 99.7592 29.0326 99.8237 29.03C99.8881 29.0249 100.331 29.0197 100.808 29.0172H100.81ZM18.8937 32.3358C18.9014 32.3358 18.9556 32.3667 19.0122 32.4079C19.0689 32.4491 19.2158 32.5908 19.3369 32.7248C19.458 32.8588 19.7131 33.1525 19.9063 33.3793C20.097 33.606 20.4912 34.0878 20.7798 34.4485C21.0709 34.8093 21.4754 35.3323 21.6816 35.608C21.8877 35.8837 22.1505 36.2444 22.2639 36.4067C22.3772 36.569 22.8204 37.2312 23.2507 37.8754C23.6784 38.5195 24.1473 39.2152 24.289 39.4213C24.4308 39.6274 24.6884 39.9907 24.8585 40.2329C25.0285 40.4725 25.3351 40.8977 25.5413 41.1733C25.7448 41.449 26.0695 41.8716 26.2601 42.1138C26.4534 42.3534 26.7445 42.709 26.9068 42.8996C27.0717 43.0903 27.3088 43.3634 27.435 43.5051C27.5639 43.6468 27.9349 44.0333 28.2595 44.3657C28.5868 44.6955 29.0866 45.1773 29.37 45.435C29.6535 45.69 30.0837 46.0636 30.3234 46.262C30.563 46.4604 30.9984 46.8005 31.2896 47.0196C31.5807 47.236 32.0857 47.5915 32.4104 47.808C32.7376 48.0244 33.2632 48.3568 33.5827 48.5474C33.9022 48.7381 34.3995 49.0241 34.6906 49.1839C34.9818 49.341 35.5435 49.6322 35.9403 49.828C36.3371 50.0238 36.8936 50.2892 37.177 50.418C37.4605 50.5469 37.9423 50.7556 38.2463 50.8818C38.5503 51.0081 39.0373 51.2013 39.3285 51.3121C39.6196 51.4203 40.1298 51.6032 40.4622 51.7166C40.7945 51.8274 41.3691 52.0103 41.7376 52.1237C42.106 52.2345 42.593 52.3788 42.8197 52.4432C43.0465 52.505 43.5386 52.6416 43.9148 52.7421C44.2909 52.8426 44.9686 53.0152 45.422 53.1286C45.8755 53.2419 46.5763 53.4068 46.9809 53.4996C47.3854 53.5923 48.1274 53.7469 48.6299 53.8474C49.1323 53.9453 49.6656 54.051 49.8151 54.0793C49.9645 54.1051 50.2763 54.1618 50.5082 54.203C50.7401 54.2416 50.941 54.2803 50.9539 54.288C50.9694 54.2957 50.8921 54.5663 50.7813 54.9064C50.6731 55.2388 50.5726 55.5402 50.5623 55.5763C50.5494 55.6124 50.4747 55.852 50.3948 56.1096C50.3175 56.3699 50.2531 56.5863 50.2531 56.594C50.2531 56.6018 50.2248 56.6069 50.1887 56.6069C50.1526 56.6069 49.7919 56.5425 49.3848 56.4652C48.9751 56.3879 48.3825 56.272 48.063 56.2075C47.7435 56.1431 47.1406 56.0143 46.7232 55.9215C46.3058 55.8288 45.5818 55.6562 45.1129 55.5376C44.6465 55.4191 44.0539 55.2645 43.7988 55.1898C43.5437 55.1177 43.0928 54.9837 42.7939 54.8935C42.4976 54.8033 41.9282 54.6178 41.5314 54.4838C41.1346 54.3499 40.5137 54.1308 40.153 53.9969C39.7922 53.8629 39.2074 53.6361 38.8518 53.4944C38.4988 53.3527 37.9423 53.1208 37.6151 52.9817C37.2904 52.84 36.8086 52.6261 36.5458 52.5076C36.283 52.3891 35.6234 52.0696 35.0771 51.7965C34.5309 51.5259 33.843 51.1678 33.5441 51.0003C33.2478 50.8354 32.8226 50.5932 32.6036 50.4618C32.3846 50.3304 31.9621 50.0599 31.6632 49.8641C31.3669 49.6657 30.9366 49.3642 30.7099 49.1942C30.4831 49.0215 30.1121 48.7278 29.8854 48.5397C29.6586 48.3491 29.3288 48.0605 29.151 47.8982C28.9732 47.7358 28.6563 47.4344 28.4451 47.2282C28.2363 47.0221 27.8344 46.6099 27.5536 46.3136C27.2727 46.0147 26.8888 45.5973 26.7007 45.3834C26.51 45.1722 26.1803 44.7883 25.9638 44.5332C25.75 44.2807 25.4124 43.8736 25.2166 43.634C25.0208 43.3918 24.6601 42.9331 24.4153 42.6162C24.1731 42.2967 23.7686 41.7531 23.5187 41.4052C23.2687 41.0574 22.8256 40.4133 22.5318 39.9753C22.2407 39.5347 21.849 38.9317 21.6635 38.6354C21.478 38.3366 21.2049 37.8857 21.0555 37.6306C20.906 37.3755 20.6819 36.9864 20.5608 36.7674C20.4371 36.5484 20.2 36.095 20.0326 35.7626C19.8651 35.4302 19.6487 34.9767 19.5533 34.7577C19.458 34.5387 19.324 34.2038 19.2544 34.0157C19.1849 33.8302 19.0895 33.5442 19.0406 33.3844C18.9916 33.2272 18.9272 32.9722 18.8989 32.8176C18.868 32.6656 18.8422 32.5032 18.8396 32.4569C18.837 32.4079 18.8448 32.3615 18.8576 32.3538C18.8705 32.3435 18.886 32.3358 18.8937 32.3358Z" fill="#FAFAFA"/>
</svg>
