<svg width="17" height="16" viewBox="0 0 17 16" fill="none" xmlns="http://www.w3.org/2000/svg">
<g id="devicon:google">
<g id="Group 27">
<path id="Vector" d="M6.07374 0.526248C4.47509 1.08083 3.09642 2.13346 2.14023 3.5295C1.18404 4.92554 0.700732 6.59143 0.761296 8.28245C0.82186 9.97348 1.4231 11.6005 2.47671 12.9246C3.53032 14.2486 4.98077 15.1999 6.61499 15.6387C7.9399 15.9806 9.328 15.9956 10.66 15.6825C11.8666 15.4115 12.9822 14.8317 13.8975 14C14.8501 13.1079 15.5415 11.9731 15.8975 10.7175C16.2843 9.35206 16.3531 7.91617 16.0987 6.52H8.65874V9.60625H12.9675C12.8814 10.0985 12.6968 10.5683 12.4249 10.9875C12.153 11.4068 11.7993 11.7669 11.385 12.0462C10.8589 12.3944 10.2658 12.6286 9.64374 12.7337C9.01993 12.8498 8.38006 12.8498 7.75624 12.7337C7.12393 12.6032 6.52579 12.3422 5.99999 11.9675C5.15518 11.3695 4.52084 10.5199 4.18749 9.54C3.8486 8.54173 3.8486 7.45952 4.18749 6.46125C4.42478 5.76152 4.81703 5.12442 5.33499 4.5975C5.92773 3.98343 6.67816 3.54449 7.50394 3.32884C8.32972 3.11319 9.19894 3.12916 10.0162 3.375C10.6547 3.5709 11.2386 3.91335 11.7212 4.375C12.2071 3.89166 12.6921 3.40708 13.1762 2.92125C13.4262 2.66 13.6987 2.41125 13.945 2.14375C13.2082 1.45815 12.3433 0.924628 11.4 0.573748C9.68212 -0.0500151 7.80246 -0.0667781 6.07374 0.526248Z" fill="#FAFAFA"/>
<path id="Vector_2" d="M6.07375 0.526245C7.80233 -0.067184 9.68199 -0.0508623 11.4 0.572495C12.3435 0.925759 13.2079 1.46184 13.9438 2.14999C13.6938 2.41749 13.43 2.66749 13.175 2.92749C12.69 3.41166 12.2054 3.89416 11.7213 4.37499C11.2386 3.91334 10.6547 3.5709 10.0163 3.37499C9.19922 3.1283 8.33002 3.1114 7.50403 3.32617C6.67803 3.54094 5.92714 3.97907 5.33375 4.59249C4.81579 5.11941 4.42353 5.75652 4.18625 6.45624L1.595 4.44999C2.52251 2.6107 4.12844 1.20377 6.07375 0.526245Z" fill="#E33629"/>
<path id="Vector_3" d="M0.907499 6.43745C1.04667 5.74717 1.27791 5.07869 1.595 4.44995L4.18625 6.4612C3.84736 7.45947 3.84736 8.54168 4.18625 9.53995C3.32292 10.2066 2.45917 10.8766 1.595 11.55C0.801437 9.97035 0.559415 8.17058 0.907499 6.43745Z" fill="#F8BD00"/>
<path id="Vector_4" d="M8.65876 6.5188H16.0988C16.3531 7.91497 16.2843 9.35086 15.8975 10.7163C15.5416 11.9719 14.8501 13.1067 13.8975 13.9988C13.0613 13.3463 12.2213 12.6988 11.385 12.0463C11.7996 11.7666 12.1535 11.4062 12.4254 10.9865C12.6973 10.5668 12.8817 10.0965 12.9675 9.6038H8.65876C8.65751 8.5763 8.65876 7.54755 8.65876 6.5188Z" fill="#587DBD"/>
<path id="Vector_5" d="M1.59375 11.5499C2.45792 10.8833 3.32167 10.2133 4.185 9.53992C4.51901 10.5202 5.15426 11.3698 6 11.9674C6.52744 12.3404 7.12687 12.5992 7.76 12.7274C8.38382 12.8434 9.02368 12.8434 9.6475 12.7274C10.2695 12.6223 10.8627 12.3881 11.3888 12.0399C12.225 12.6924 13.065 13.3399 13.9012 13.9924C12.9861 14.8246 11.8705 15.4048 10.6637 15.6762C9.33176 15.9893 7.94365 15.9743 6.61875 15.6324C5.57088 15.3526 4.59209 14.8594 3.74375 14.1837C2.84591 13.4707 2.11254 12.5723 1.59375 11.5499Z" fill="#319F43"/>
</g>
</g>
</svg>
